<?xml version="1.0" encoding="UTF-8" standalone="no"?>
<!-- Created with Inkscape (http://www.inkscape.org/) -->

<svg
   width="42.623253mm"
   height="16.462996mm"
   viewBox="0 0 42.623253 16.462995"
   version="1.1"
   id="svg1"
   inkscape:version="1.3.2 (091e20e, 2023-11-25)"
   sodipodi:docname="bonn_logo.svg"
   xmlns:inkscape="http://www.inkscape.org/namespaces/inkscape"
   xmlns:sodipodi="http://sodipodi.sourceforge.net/DTD/sodipodi-0.dtd"
   xmlns="http://www.w3.org/2000/svg"
   xmlns:svg="http://www.w3.org/2000/svg">
  <sodipodi:namedview
     id="namedview1"
     pagecolor="#ffffff"
     bordercolor="#000000"
     borderopacity="0.25"
     inkscape:showpageshadow="2"
     inkscape:pageopacity="0.0"
     inkscape:pagecheckerboard="0"
     inkscape:deskcolor="#d1d1d1"
     inkscape:document-units="mm"
     inkscape:zoom="1.6689808"
     inkscape:cx="141.70325"
     inkscape:cy="122.82945"
     inkscape:window-width="1920"
     inkscape:window-height="1027"
     inkscape:window-x="0"
     inkscape:window-y="25"
     inkscape:window-maximized="1"
     inkscape:current-layer="layer1" />
  <defs
     id="defs1" />
  <g
     inkscape:label="Layer 1"
     inkscape:groupmode="layer"
     id="layer1"
     transform="translate(-85.378082,-113.6192)">
    <g
       id="g31"
       transform="matrix(0.01451248,0,0,0.01451248,118.00192,82.948119)">
      <path
         style="fill:#2e4f8f;fill-opacity:1"
         d="m -489.98214,2459.639 v -273.8959 h 316.86411 c 198.04898,0 316.86411,0.234 316.86411,0.6239 0,1.0529 -11.73544,30.0581 -17.58493,43.4627 -35.402115,81.1271 -81.7696,152.9514 -150.68755,233.4187 -17.63192,20.5867 -30.65528,34.6271 -50.97534,54.9563 -26.8381,26.8501 -45.92229,44.0015 -73.03554,65.6385 -98.17876,78.3489 -207.16477,127.883 -322.59178,146.6179 -8.00429,1.2991 -15.52072,2.5222 -16.70317,2.7179 l -2.14991,0.3558 z"
         id="path31" />
      <path
         style="fill:#8e8e7c;fill-opacity:1;stroke:none"
         d="m -781.44808,2902.3811 c -5.3937,2.1272 -3.9792,9.4619 -3.9792,14.0622 0,3.1774 -0.7822,7.6585 0.78,10.5479 2.5093,4.6415 13.4,4.4429 17.6729,2.5843 4.7013,-2.0449 3.377,-9.0056 3.377,-13.1322 0,-3.3581 0.8503,-8.16 -0.78,-11.2166 -2.3838,-4.4693 -12.8398,-4.5141 -17.0707,-2.8456 m 46.3058,0 c -5.3937,2.1272 -3.9792,9.4619 -3.9792,14.0622 0,3.2496 -0.9099,8.2174 0.8718,11.0971 2.4987,4.0389 13.0762,3.7257 16.9859,2.2036 5.4724,-2.1305 3.9722,-9.2648 3.9722,-13.9622 0,-3.1926 0.772,-7.6452 -0.78,-10.5551 -2.3838,-4.4693 -12.84,-4.5141 -17.0707,-2.8456 m -434.62322,205.9006 -1.3231,19.8454 c 18.8518,0.8094 37.1857,4.6305 56.2285,4.6305 15.7203,0 34.2926,0.5311 47.6289,-9.2131 7.4237,-5.4243 11.1338,-14.3738 12.6213,-23.2009 2.9127,-17.2841 2.7994,-39.4063 -8.9595,-53.5799 -12.8631,-15.5046 -38.3397,-17.9202 -56.5828,-23.1555 -6.7037,-1.9238 -14.4914,-3.2635 -19.8356,-8.0606 -10.5741,-9.4916 -11.2838,-36.9107 3.2979,-43.2275 7.8877,-3.4169 17.4217,-2.2943 25.7989,-2.2943 16.1676,0 32.9211,-0.703 48.9519,1.323 0.7835,-3.2908 3.4685,-16.8052 0.8978,-19.1915 -1.7601,-1.6339 -5.905,-1.7585 -8.1745,-2.1402 -6.7964,-1.1432 -13.6232,-2.1736 -20.5068,-2.5082 -23.4217,-1.1386 -66.2908,-7.7931 -79.1323,17.8863 -3.7325,7.4638 -4.8665,16.8871 -4.8797,25.1374 -0.013,7.9941 0.2381,16.0221 2.2346,23.8145 7.3058,28.5142 37.8393,32.1075 61.932,38.9363 7.4658,2.116 16.5327,3.4577 22.4813,8.815 10.2645,9.2443 10.8476,35.8379 -1.9744,43.2969 -11.5017,6.6908 -28.2685,4.2094 -41.0137,4.2094 -13.2231,0 -26.4677,-1.323 -39.6907,-1.323 m -157.4398,-158.7628 v 179.9312 h 25.7989 v -74.0893 c 14.4938,0 40.8783,-4.999 52.1997,6.023 11.2846,10.9862 13.3716,34.8215 17.3591,49.544 1.1335,4.185 2.1332,15.1865 5.657,17.8424 1.7862,1.3462 5.3729,0.6799 7.4732,0.6799 h 19.8454 c -1.8235,-13.5282 -7.7946,-27.2524 -11.6265,-40.3522 -3.0463,-10.4143 -5.1338,-22.187 -11.6316,-31.0911 -4.3757,-5.9961 -10.8885,-7.634 -15.7711,-12.5687 28.4392,-2.2633 34.0958,-29.2561 32.4732,-52.9209 -0.8961,-13.071 -3.2351,-26.0025 -13.9509,-34.8427 -10.9901,-9.0665 -27.4058,-10.1401 -41.0137,-10.1401 -22.3682,0 -44.5469,1.5249 -66.8127,1.9845 m -35.0601,178.6082 -1.3231,-19.8454 h -59.536 c -7.2521,0 -17.6858,1.6486 -22.8926,-4.6596 -4.1063,-4.9751 -3.5679,-12.4542 -3.5679,-18.4933 v -39.6907 h 76.0739 v -21.1684 h -76.0739 v -31.7525 c 0,-5.4678 -0.1178,-12.0433 3.5679,-16.5088 5.1519,-6.2418 15.6975,-4.6596 22.8926,-4.6596 h 59.536 c 0.1623,-3.7783 3.3677,-17.3661 0.2624,-19.8269 -4.1705,-3.3052 -16.2156,-0.9375 -21.4307,-1.6222 -11.6537,-1.5301 -23.9724,-0.2435 -35.7217,-0.3834 -15.5541,-0.185 -33.7363,-3.1419 -46.2461,8.7243 -10.8217,10.265 -9.3209,26.0135 -9.3209,39.5687 v 88.6425 c 0,13.1514 -0.2027,27.4213 11.2554,36.3566 10.5191,8.2031 23.1451,7.3032 35.712,7.3032 22.1957,0 44.7885,0.7989 66.8127,-1.9845 m -701.864,-178.6082 v 97.9037 c 0,21.128 -1.0156,44.0043 10.2223,62.8437 5.5286,9.2681 14.7283,15.4093 24.8378,18.7402 27.1404,8.9421 72.9031,8.201 88.4364,-20.0633 10.1802,-18.5238 9.4674,-41.6566 9.4674,-62.1821 v -97.2422 h -26.4605 v 88.6426 c 0,16.9296 1.9405,35.4292 -4.1207,51.5979 -8.5252,22.7418 -49.5141,28.1525 -65.801,10.5244 -11.6116,-12.5677 -10.1212,-31.7567 -10.1212,-47.5691 v -103.1958 h -26.4605 m 175.3006,179.9312 h 25.799 l -0.6615,-155.4553 c 4.5819,0.7475 5.1126,6.1818 6.7146,9.9227 4.1098,9.597 8.9873,18.8616 13.1307,28.445 11.9019,27.5279 24.5009,55.0176 37.5352,82.0275 4.659,9.6546 8.0691,24.5746 15.6032,32.2726 2.7273,2.7868 6.0674,2.7861 9.7052,2.7875 8.263,0 19.9005,2.1121 27.7733,-0.4319 2.7788,-0.8978 4.4408,-3.4186 5.044,-6.1832 1.2538,-5.7458 0.2583,-12.6512 0.2583,-18.5224 v -37.0446 -117.7491 h -25.7989 v 95.9192 l 1.323,58.8745 c -5.0684,-0.3913 -5.9029,-5.2593 -7.7932,-9.2611 -4.4721,-9.4678 -9.2187,-18.8315 -13.3752,-28.445 -11.6228,-26.8823 -24.0969,-53.5255 -36.5286,-80.0429 -4.7218,-10.0718 -8.4938,-25.8029 -16.4617,-33.6652 -6.0683,-5.9878 -27.0257,-4.8735 -34.9907,-3.0294 -3.3751,0.7815 -6.0028,2.8344 -6.9076,6.2655 -1.4308,5.4255 -0.3691,12.2712 -0.3691,17.8603 v 37.0447 118.4106 m 184.5618,-179.9312 v 179.9312 h 26.4605 v -179.9312 h -26.4605 m 52.2594,0 c 2.1511,14.5659 8.8402,29.5842 13.2134,43.6598 9.5128,30.618 19.0287,61.2517 28.2766,91.9501 3.1293,10.3879 6.5024,20.7032 9.6317,31.0911 1.4465,4.8015 2.5527,10.4461 7.7534,12.5625 2.8086,1.143 6.2926,0.6677 9.2606,0.6677 7.5713,0 23.3969,3.0623 28.6844,-3.4301 3.3331,-4.0927 4.1946,-10.8084 5.7311,-15.7537 l 10.5842,-34.3987 c 9.0366,-29.0852 18.1346,-58.157 26.9198,-87.3195 3.7427,-12.4239 10.3026,-26.0889 11.431,-39.0292 h -18.5223 c -2.1355,0 -5.7388,-0.6634 -7.5655,0.6799 -1.9917,1.4647 -2.3758,5.6889 -3.0187,7.9198 l -6.3364,21.8298 c -7.9244,27.7942 -15.5828,55.7259 -24.0768,83.3505 -3.6266,11.7947 -7.0302,23.7516 -10.0227,35.7217 -0.8845,3.5379 -1.0391,10.5065 -5.8699,10.5065 -5.588,0 -5.666,-9.8225 -6.7173,-13.8141 -3.9133,-14.8588 -8.5321,-29.5438 -12.7453,-44.3213 -3.9027,-13.6885 -7.917,-27.3505 -11.9092,-41.0137 -5.8945,-20.1737 -12.8839,-40.3744 -17.5801,-60.8591 h -27.122 m 633.7283,0 v 179.9312 h 25.79882 v -179.9312 h -25.79882 m 54.24382,0 v 23.1529 h 56.2285 v 156.7783 h 26.4605 v -116.4261 -29.1065 c 0,-2.6871 -1.0169,-8.1075 1.0606,-10.185 2.6246,-2.6246 11.33,-1.0607 14.8157,-1.0607 h 41.0137 v -23.1529 h -139.579 m 133.6254,179.9312 h 18.5223 c 2.1807,0 5.7136,0.6452 7.6008,-0.6799 2.8319,-1.9885 3.5074,-8.7554 4.5249,-11.8888 3.0588,-9.4204 5.9783,-18.9394 8.7619,-28.445 0.9901,-3.381 1.7655,-9.8035 4.5342,-12.1696 3.3767,-2.8856 13.314,-1.0607 17.5765,-1.0607 16.3302,0 33.3504,-1.3969 49.6108,0.039 5.5076,0.4864 6.2892,8.8518 7.56,13.1915 2.7196,9.287 5.604,18.5647 8.5465,27.7835 1.1361,3.5588 1.7393,8.637 3.9252,11.6969 1.5184,2.1254 4.8157,1.5331 7.0928,1.5333 h 19.8454 c -1.9794,-13.4527 -8.5242,-26.7303 -12.5519,-39.6907 -10.0453,-32.3238 -20.8444,-64.4674 -31.5489,-96.5807 -3.4483,-10.3449 -6.6948,-20.7459 -10.1432,-31.0911 -1.5854,-4.7561 -2.7268,-9.8814 -7.9407,-11.8188 -7.9511,-2.9546 -20.6602,-0.9611 -29.1039,-0.7402 -3.1947,0.084 -6.6912,0.8539 -8.8319,3.4393 -3.1604,3.8167 -4.1757,10.4363 -5.7214,15.0733 -3.742,11.226 -7.2828,22.5098 -11.0252,33.7371 -10.1097,30.3293 -20.5822,60.679 -29.8033,91.2886 -3.5105,11.6534 -10.3713,24.2468 -11.4309,36.3832 m 151.4862,-179.9312 v 23.1529 h 56.89 v 156.7783 h 26.4604 V 2972.672 h 56.89 v -23.1529 h -140.2404 m -622.48252,83.3505 v -62.8436 h 35.7217 c 8.1948,0 17.1981,-0.128 24.4754,4.2861 14.6942,8.9128 13.9078,45.6966 -0.661,54.3551 -7.3813,4.3869 -16.2101,4.2024 -24.4759,4.2024 h -35.0602 m 553.68522,-62.8436 c 5.7528,27.7969 16.4913,55.6494 25.1375,82.6889 h -57.5515 c 5.9748,-21.0539 12.6738,-41.9444 19.1669,-62.8436 2.7725,-8.9234 2.3239,-19.8453 13.2471,-19.8453"
         id="path30"
         sodipodi:nodetypes="csssssccssssscccsssssssscsssssssssscccccsssscsscssscccsssccccssscssssssssccsssssccsssscccccsssscssscccccsssssssccccccccssssssccscssccsssssscccccccccccccsssccccssssssssssccsssssssssccccccccccccssssccccsc" />
      <path
         style="fill:#8e8e7c;fill-opacity:1;stroke:none"
         d="m -487.07699,2777.3764 v 76.7354 h 992.2675 v -668.7884 h -232.8521 -60.8591 c -5.3345,0 -18.4186,-2.4022 -22.8155,0.6799 -4.5868,3.2151 -6.9895,16.6125 -9.0691,21.8115 -7.4923,18.7302 -15.4703,37.2379 -23.8865,55.567 -27.0897,58.9974 -61.3386,114.7815 -99.303303,167.3625 -95.2034,131.8561 -222.381197,242.9489 -374.796497,302.8381 -55.0253,21.6213 -110.8744,33.0223 -168.6854,43.794"
         id="path30-0"
         sodipodi:nodetypes="cccccssssssc" />
      <path
         style="fill:#f8b029;fill-opacity:1;stroke:none"
         d="m -488.97315,2897.6688 v 279.1579 h 992.929 v -279.1579 h -992.929 m 265.2662,50.4637 c 22.5947,-2.6746 53.878,-1.2153 70.3912,16.4613 16.2041,17.3455 17.7122,43.6197 18.261,66.0388 0.7243,29.5972 2.7822,74.2924 -25.8086,92.8107 -10.2436,6.6348 -21.8399,8.788 -33.7371,10.1963 -23.111,2.7358 -54.1889,0.7604 -70.667,-17.672 -15.3683,-17.1911 -17.3141,-44.8729 -17.3141,-66.8127 0,-34.1429 -1.5586,-79.219 35.0601,-95.7129 7.3916,-3.3294 15.8393,-4.3654 23.8145,-5.3095 m -122.3797,88.4537 c 3.4011,3.1873 10.1504,2.9825 14.5532,4.6735 9.0194,3.464 15.236,10.7386 18.2871,19.8025 2.3637,7.0215 2.9813,14.4906 3.4837,21.8298 0.3813,5.5705 -0.2027,11.701 -1.1011,17.1994 -6.3402,38.8045 -52.1569,32.414 -81.5287,32.414 -11.0611,0 -22.0488,-0.5329 -33.0756,-0.6641 -3.0894,-0.037 -11.0698,0.48 -13.4925,-1.4388 -3.1894,-2.526 -1.0608,-16.4638 -1.0608,-20.3885 v -61.5206 -71.4432 -18.5224 c 0,-1.9252 -0.6032,-5.2574 0.6799,-6.8774 1.3205,-1.6671 4.7253,-1.0286 6.5967,-1.2496 6.5246,-0.7702 13.2713,-1.1341 19.8454,-1.1341 24.7366,0 56.4764,-5.4227 79.3814,6.2007 14.9688,7.5959 17.8608,23.5545 17.8608,38.7821 0,20.2818 -5.9118,42.1337 -30.4295,42.3367 m 361.185392,60.1978 -1.323,-145.5326 h 31.7525 v 116.4261 36.3831 c 0,5.8823 0.9792,12.7745 -0.3501,18.5223 -0.7889,3.4115 -2.8812,6.2226 -6.2655,7.3732 -3.2488,1.1045 -7.2012,0.565 -10.5837,0.565 -8.3729,0 -23.9414995,3.0566 -30.2886995,-3.4321 -7.2122,-7.373 -10.4227005,-21.0996 -14.8651005,-30.305 -12.2049,-25.2906 -24.04,-50.9976 -35.2699,-76.7354 -3.9604,-9.0766 -8.4319,-17.8949 -12.0537,-27.1219 -1.4325,-3.6496 -1.6365,-8.5347 -6.0878,-9.2612 l 1.323,56.2285 v 90.6271 h -31.752602 v -116.4261 -36.3831 c 0,-5.9187 -0.9257,-12.7401 0.4522,-18.5223 0.811902,-3.4071 2.816002,-6.0722 6.165502,-7.2965 3.0589,-1.1182 6.7174,-0.6417 9.9201,-0.6417 8.172,0 23.9023,-3.034 30.3071,2.8712 8.3113,7.6627 12.6747,24.6064 17.2299,34.835 10.937,24.5594 21.9736,49.2159 33.6579005,73.4278 3.9875,8.2627 7.4566,16.7899 11.2640996,25.1374 1.6789999,3.6809 2.5173999,8.0318 6.7677999,9.2612 M 200.32205,2951.2514 h 31.7525 v 128.9948 32.4141 c 0,4.7482 0.7909,10.4532 -2.4138,14.4287 -2.8981,3.5952 -7.2986,3.4318 -11.4779,3.4321 -9.5564,6e-4 -28.1483,3.6989 -34.7079,-4.6408 -4.42,-5.6194 -7.0421,-13.9601 -9.8941,-20.4967 -4.8438,-11.1014 -10.0838,-22.0665 -15.1382,-33.0755 l -25.799,-56.2285 c -4.7068,-10.2523 -11.3571,-21.1141 -13.0261,-32.4141 h -3.3075 c 3.8332,48.5447 1.323,98.1225 1.323,146.8556 H 85.880442 v -115.103 c 0,-17.6382 -2.9642,-38.2514 0.3095,-55.567 0.7103,-3.7567 2.6166,-6.619 6.3061,-7.958 3.2461,-1.1782 7.185405,-0.6417 10.583708,-0.6417 8.3397,0 23.8855,-3.0506 30.2122,3.4484 7.7547,7.966 11.6918,23.5368 16.2978,33.5963 11.3017,24.6824 23.0589,49.2075 33.9138,74.0893 3.7709,8.6437 7.8071,17.1723 11.6188,25.7989 0.7488,1.695 2.4257,8.0261 5.0256,7.5206 2.6549,-0.5161 0.9349,-6.5062 0.8616,-8.1821 -0.3766,-8.6073 -0.6875,-17.1705 -0.6875,-25.7989 v -110.4725 m -608.5908,23.8144 v 50.9364 c 15.4236,0 39.0537,4.2778 52.9209,-3.6597 12.4213,-7.1099 12.8139,-35.7239 0.661,-43.3111 -6.2674,-3.9129 -14.7105,-3.9656 -21.8294,-3.9656 h -31.7525 m 194.4844,0.2807 c -5.4725,0.7207 -10.9102,1.2378 -15.8763,3.9028 -17.2566,9.2608 -17.4229,31.8167 -18.5814,48.7375 -1.7461,25.5051 -4.1298,73.2801 29.8271,77.8675 6.5126,0.8797 12.6713,0.8797 19.1839,0 21.3027,-2.8779 27.0218,-21.6526 29.2948,-40.1614 0.8355,-6.8035 1.1347,-13.6496 1.1347,-20.5068 0,-26.6234 1.3568,-65.8799 -33.0756,-69.5685 -4.0041,-0.4289 -7.8819,-0.8011 -11.9072,-0.2711 m -194.4844,73.8086 v 57.5516 h 35.0601 c 7.2679,0 16.1331,0 22.4909,-4.0574 13.7322,-8.7598 11.6067,-41.3931 -1.984,-49.2847 -14.6688,-8.5176 -39.2482,-4.2095 -55.567,-4.2095 z"
         id="path30-5"
         sodipodi:nodetypes="ccccccsssssssccssssssssccsssssscccccsssssssscccccssssssssccccsssssccccccssssssssssscccsssccssssssscccscsc" />
    </g>
  </g>
</svg>
