<?xml version="1.0" encoding="UTF-8" standalone="no"?>
<!-- Created with Inkscape (http://www.inkscape.org/) -->

<svg
   width="146.94901mm"
   height="188.75555mm"
   viewBox="0 0 146.949 188.75555"
   version="1.1"
   id="svg1"
   xml:space="preserve"
   sodipodi:docname="jtrack_logo.svg"
   inkscape:version="1.3.2 (091e20e, 2023-11-25)"
   xmlns:inkscape="http://www.inkscape.org/namespaces/inkscape"
   xmlns:sodipodi="http://sodipodi.sourceforge.net/DTD/sodipodi-0.dtd"
   xmlns="http://www.w3.org/2000/svg"
   xmlns:svg="http://www.w3.org/2000/svg"><sodipodi:namedview
     id="namedview1"
     pagecolor="#ffffff"
     bordercolor="#000000"
     borderopacity="0.25"
     inkscape:showpageshadow="2"
     inkscape:pageopacity="0.0"
     inkscape:pagecheckerboard="0"
     inkscape:deskcolor="#d1d1d1"
     inkscape:document-units="mm"
     inkscape:zoom="0.99888117"
     inkscape:cx="174.69545"
     inkscape:cy="327.36627"
     inkscape:window-width="2560"
     inkscape:window-height="1387"
     inkscape:window-x="0"
     inkscape:window-y="25"
     inkscape:window-maximized="1"
     inkscape:current-layer="layer1" /><defs
     id="defs1" /><g
     inkscape:label="Layer 1"
     inkscape:groupmode="layer"
     id="layer1"
     transform="translate(-28.27538,-34.206516)"><path
       style="fill:#307175;fill-opacity:1;stroke-width:1.13688"
       d="m 44.437745,218.59546 -0.687251,-0.11523 0.159378,-1.60451 c 0.08765,-0.88248 0.215407,-1.93375 0.283886,-2.33613 l 0.12451,-0.73161 1.547898,0.0986 c 1.803101,0.1148 2.809525,-0.22141 3.194955,-1.06734 0.180419,-0.39598 0.271635,-2.7724 0.271635,-7.07683 v -6.48066 h -2.664915 c -1.465703,0 -2.628848,-0.0966 -2.584767,-0.21468 0.04407,-0.11808 0.567047,-1.14469 1.162143,-2.28137 l 1.081996,-2.06667 4.26787,-0.004 4.267871,-0.002 v 8.96609 c 0,9.85687 -0.132938,11.05753 -1.403244,12.67381 -0.363778,0.46286 -1.302972,1.16431 -2.087098,1.55878 -1.27261,0.64023 -1.684551,0.72163 -3.836651,0.75797 -1.326031,0.0224 -2.720228,-0.0113 -3.098216,-0.0744 z M 128.91952,218.426 c -2.39248,-0.68973 -4.24846,-1.95642 -5.51764,-3.76578 -3.91562,-5.58208 -2.72795,-15.05495 2.30646,-18.39661 2.08179,-1.38182 3.669,-1.82405 6.57738,-1.8326 1.90391,-0.006 2.84982,0.10778 3.84711,0.46093 0.72734,0.2576 1.32244,0.56624 1.32244,0.68586 0,0.11962 -0.26464,1.11359 -0.58807,2.20882 -0.46733,1.58251 -0.66477,1.96011 -0.96177,1.8393 -0.20555,-0.0837 -1.03791,-0.26928 -1.84973,-0.41258 -2.7902,-0.49256 -5.24096,0.5621 -6.34783,2.73174 -1.25984,2.4695 -1.16344,7.3724 0.18861,9.59326 0.99194,1.62934 2.75237,2.44301 5.25969,2.43101 1.04205,-0.005 2.25198,-0.11392 2.6887,-0.2421 0.57952,-0.17007 0.81766,-0.15538 0.88148,0.0543 0.0481,0.15807 0.31291,0.98464 0.5885,1.83685 0.69285,2.14245 0.66268,2.34428 -0.40059,2.67959 -1.33374,0.42058 -6.68271,0.50619 -7.99474,0.12795 z m -62.755727,-9.52654 v -9.61774 h -2.885321 -2.88532 v -2.40442 -2.40445 h 8.535741 c 4.694658,0 8.535741,0.0809 8.535741,0.17975 0,0.0989 -0.333521,1.18084 -0.741158,2.40442 l -0.741158,2.2247 -2.204274,-1.1e-4 -2.204274,-1e-4 0.06802,9.61784 0.06802,9.61785 h -2.773005 -2.773006 z m 14.186162,-2.2562 v -11.87394 l 1.596933,-0.17101 c 2.664596,-0.28536 6.82499,-0.17271 8.328682,0.22551 3.815715,1.0105 5.684571,3.11273 5.886788,6.62189 0.143201,2.48508 -0.510447,4.20532 -2.264331,5.95921 -0.707002,0.707 -1.285469,1.32601 -1.285469,1.37557 0,0.0496 1.244302,2.15888 2.765104,4.68739 1.520802,2.52852 2.765103,4.70234 2.765103,4.83071 0,0.14188 -1.154954,0.20693 -2.945435,0.16589 l -2.945435,-0.0675 -3.00554,-5.21811 c -1.653044,-2.86997 -3.086681,-5.29544 -3.185873,-5.38994 -0.09914,-0.0945 -0.180332,2.2807 -0.180332,5.27822 v 5.45006 H 83.115053 80.349955 Z M 87.51,206.51679 c 0.756638,-0.38475 1.745199,-1.08458 2.196824,-1.55516 0.679057,-0.70758 0.837367,-1.07535 0.914971,-2.12565 0.174761,-2.36495 -1.180478,-3.79353 -3.599538,-3.79433 l -1.142107,-3.6e-4 v 4.08753 c 0,2.24814 0.05719,4.08753 0.12708,4.08753 0.06992,0 0.746145,-0.31479 1.50277,-0.69956 z m 11.958756,10.98629 c 0.882454,-2.66998 5.887304,-18.45903 5.887304,-18.573 0,-0.071 -0.48689,-0.12925 -1.08199,-0.12925 -0.5951,0 -1.082,-0.0565 -1.082,-0.12555 0,-0.069 0.43538,-0.99149 0.96752,-2.04985 l 0.9675,-1.92428 3.76089,0.0661 3.76087,0.0662 3.55194,11.30083 c 1.95356,6.21547 3.61484,11.5443 3.69171,11.84185 0.1391,0.53838 0.12609,0.54099 -2.70025,0.54099 h -2.84004 l -0.30328,-1.14211 c -0.16681,-0.62815 -0.46743,-1.71014 -0.66805,-2.40443 l -0.36475,-1.26232 h -3.57252 -3.57253 l -0.38997,1.38254 c -0.21449,0.7604 -0.52853,1.81535 -0.69788,2.34433 l -0.3079,0.96177 -2.67344,0.0678 -2.673452,0.0679 z m 12.143354,-8.54351 c 0.0146,-0.5863 -2.04461,-7.49159 -2.18857,-7.33883 -0.0962,0.10209 -0.65941,1.83568 -1.25151,3.85239 l -1.07657,3.66677 h 2.25607 c 1.24084,0 2.2581,-0.0811 2.26058,-0.18033 z m 30.05091,-0.30055 v -9.85819 h -1.32485 -1.32486 l 1.08682,-2.16399 1.08683,-2.16399 h 2.88291 2.88291 v 12.02218 12.02217 h -2.64488 -2.64488 z m 12.17158,9.31718 c -0.94885,-1.49852 -6.64138,-11.47067 -6.64138,-11.63436 0,-0.10414 1.37145,-2.7632 3.04769,-5.90897 l 3.0477,-5.71956 h 2.98414 2.98414 l -1.20384,2.22409 c -0.66212,1.22326 -2.06053,3.78333 -3.10761,5.68904 l -1.90375,3.46493 3.44691,6.03259 c 1.8958,3.31791 3.44718,6.11372 3.44752,6.21291 3.3e-4,0.0991 -1.29531,0.18033 -2.87918,0.18033 -2.72464,0 -2.89823,-0.0291 -3.22234,-0.541 z m -27.46664,-37.92515 c -0.58883,-0.23792 -1.53598,-1.36616 -1.53598,-1.82965 0,-0.39438 -0.16893,-0.42242 -7.81442,-1.29687 -11.42502,-1.30675 -11.91562,-1.4188 -13.34635,-3.04831 -1.25788,-1.43265 -0.90036,-3.7042 0.78295,-4.97455 0.91026,-0.68696 2.30557,-1.11326 3.66701,-1.12036 0.52898,-0.002 1.09665,-0.0908 1.26152,-0.19537 0.19799,-0.12574 -2.25969,-2.03937 -7.23919,-5.63673 -4.146426,-2.9955 -7.728956,-5.73634 -7.961174,-6.09076 -1.639617,-2.50237 0.466677,-5.86234 3.492693,-5.57158 1.004989,0.0965 1.578203,0.40753 4.082281,2.21459 1.60221,1.15624 2.93214,2.0652 2.95539,2.01991 0.0232,-0.0452 0.25867,-0.50637 0.52315,-1.02463 0.7688,-1.50644 1.56169,-1.94605 3.47289,-1.92548 l 1.63082,0.0175 0.2922,-0.80806 c 0.17418,-0.4817 0.67355,-1.06042 1.23643,-1.43293 0.84324,-0.55803 1.11126,-0.61145 2.50581,-0.49952 1.25435,0.10074 1.56159,0.0575 1.56159,-0.21956 0,-1.41218 1.7946,-2.78096 3.64611,-2.78096 1.02329,0 1.4297,0.14911 2.5716,0.9435 6.70763,4.66631 10.98876,8.12669 13.95211,11.27727 1.54393,1.64148 1.98143,1.96979 2.79252,2.09552 1.81172,0.28086 2.84826,2.26923 2.00467,3.8455 -0.59322,1.10845 -11.08764,15.22372 -11.69859,15.7349 -0.67209,0.56236 -1.87983,0.6929 -2.83604,0.30655 z m 7.31987,-9.47503 c 4.5317,-6.15254 5.59886,-7.74352 5.40283,-8.05485 -0.13435,-0.21337 -0.40867,-0.42035 -0.60959,-0.45998 -0.23885,-0.047 -2.27612,2.53311 -5.88534,7.45375 -3.03604,4.13918 -5.6014,7.66576 -5.70084,7.83685 -0.23062,0.39689 0.30357,1.05402 0.78167,0.96156 0.20031,-0.0387 2.90537,-3.52054 6.01127,-7.73733 z m -2.96499,-1.861 c 2.90936,-3.968 5.32638,-7.31728 5.37114,-7.44287 0.11175,-0.31355 -2.98919,-3.48547 -5.61157,-5.74001 -1.1902,-1.02325 -3.99026,-3.17555 -6.22237,-4.78288 -3.23877,-2.33222 -4.21931,-2.92243 -4.85534,-2.92243 -0.91978,0 -1.54558,0.69305 -1.54558,1.71169 0,0.75285 0.49752,1.21557 4.16652,3.87515 2.75767,1.99899 3.0582,2.49502 1.95108,3.22043 -0.70491,0.46189 -0.0508,0.83962 -6.01624,-3.47412 -3.49105,-2.52447 -4.0998,-2.7721 -5.09717,-2.07352 -0.60522,0.42392 -0.73283,1.68826 -0.23383,2.3168 0.1653,0.20821 2.04113,1.63018 4.16852,3.15991 2.12738,1.52972 4.00213,2.94299 4.1661,3.14057 0.49023,0.5907 0.22949,1.45838 -0.4601,1.53109 -0.4498,0.0474 -1.93261,-0.90717 -5.89086,-3.79248 -2.90936,-2.12073 -5.54263,-3.9216 -5.85168,-4.00192 -0.64487,-0.16758 -1.79421,0.5633 -1.92392,1.22343 -0.22069,1.12322 0.242,1.57243 5.60678,5.44333 2.99158,2.15855 5.4743,4.11892 5.56053,4.39062 0.22738,0.71638 -0.72509,1.45518 -1.40612,1.09071 -0.27193,-0.14554 -4.60075,-3.22766 -9.61961,-6.84915 -5.01885,-3.62151 -9.321848,-6.58455 -9.562218,-6.58455 -0.764152,0 -1.205374,0.27919 -1.57702,0.99787 -0.302205,0.58441 -0.310617,0.80269 -0.05127,1.32977 0.190335,0.38675 3.889865,3.21859 9.567408,7.32348 7.35723,5.3193 9.27236,6.81357 9.3316,7.2809 0.11334,0.89462 -0.57842,1.14762 -2.27555,0.83221 -0.77309,-0.1437 -2.40516,-0.21815 -3.62681,-0.16547 -2.45067,0.10573 -3.3467,0.51536 -3.77836,1.72747 -0.33795,0.94904 0.54544,1.71978 2.51311,2.19263 1.15451,0.27742 15.87468,2.14561 17.67259,2.24288 0.13225,0.007 2.62084,-3.23354 5.5302,-7.20154 z m -46.306551,5.69415 c -4.04154,-1.1149 -7.138143,-4.41783 -7.90231,-8.42886 -0.200175,-1.0507 -0.255356,-10.5559 -0.203095,-34.98451 l 0.07176,-33.541849 0.556002,-1.37649 c 0.847341,-2.097734 2.482778,-4.150502 4.18136,-5.248352 2.815024,-1.819437 2.188312,-1.756771 18.543534,-1.854145 8.4636,-0.05037 15.42947,0.01023 16.53463,0.143803 4.87402,0.589244 8.7258,4.128846 9.57627,8.800114 0.17463,0.95908 0.25978,9.179759 0.25978,25.081159 v 23.65446 l -1.08201,-0.77702 -1.08199,-0.77704 v -23.51367 c 0,-23.322619 -0.005,-23.524689 -0.50659,-24.867659 -1.22705,-3.279582 -4.18252,-5.442174 -7.65283,-5.599768 l -1.8368,-0.08345 -0.41349,1.31173 c -0.56177,1.782159 -1.59724,3.136293 -2.86898,3.751938 -1.02047,0.494 -1.37315,0.5128 -9.62065,0.5128 h -8.561369 l -1.040573,-0.79012 c -0.78257,-0.594213 -1.279044,-1.286117 -2.002349,-2.790582 l -0.961775,-2.000462 -1.923553,0.09948 c -1.610859,0.08333 -2.170601,0.231184 -3.44337,0.909616 -2.567577,1.368619 -4.190499,3.676798 -4.642305,6.602448 -0.133845,0.86672 -0.19744,14.739819 -0.157123,34.276549 l 0.06773,32.82052 0.580067,1.44267 c 0.796592,1.98116 2.979337,4.16051 4.950132,4.94244 1.393412,0.55283 1.703393,0.5753 9.081004,0.6581 l 7.638334,0.0858 0.35641,0.85298 c 0.19602,0.46915 0.3564,0.89387 0.3564,0.94385 0,0.0499 -3.543526,0.0811 -7.87452,0.0693 -5.549999,-0.0151 -8.200187,-0.11131 -8.977723,-0.32583 z M 109.94904,94.138868 c 0.83187,-0.55997 1.25286,-1.212049 1.54658,-2.395458 l 0.1641,-0.66122 h -10.4794 -10.479399 l 0.229161,0.602749 c 0.463778,1.219825 0.967187,2.011979 1.589878,2.501792 0.618245,0.486299 0.889857,0.502113 8.62521,0.502113 7.92289,0 7.99342,-0.0045 8.80387,-0.549976 z M 92.131682,170.4937 c -0.770234,-0.2932 -0.926828,-1.02757 -0.343496,-1.61088 0.317393,-0.3174 1.120404,-0.37785 5.01951,-0.37785 h 4.641674 l -0.38908,1.08199 -0.38908,1.082 -4.089435,-0.019 c -2.249188,-0.0102 -4.251731,-0.0807 -4.450093,-0.15627 z m 1.703714,-37.18885 c -0.163881,-0.19747 -0.262619,-0.56789 -0.219406,-0.82315 0.09663,-0.57083 12.6972,-18.01297 13.14005,-18.1889 0.51508,-0.20463 1.2453,0.32673 1.24,0.9023 -0.007,0.76457 -12.767662,18.30472 -13.384043,18.39707 -0.263244,0.0395 -0.61272,-0.0898 -0.776601,-0.28732 z m 7.971324,-0.90527 c -0.16377,-0.16376 -0.29775,-0.48648 -0.29775,-0.71717 0,-0.23068 1.71135,-2.77878 3.80299,-5.66243 3.86107,-5.32309 4.37119,-5.82198 5.22687,-5.11183 0.19109,0.1586 0.34743,0.41209 0.34743,0.56333 0,0.15124 -1.76432,2.70773 -3.92073,5.68109 -3.87588,5.34427 -4.46369,5.94213 -5.15881,5.24701 z m -10.107836,-5.29896 c -0.158696,-0.1587 -0.288539,-0.44132 -0.288539,-0.62807 0,-0.18676 1.751917,-2.7619 3.893159,-5.72256 3.471525,-4.80004 3.965782,-5.38301 4.563833,-5.38301 0.510423,0 0.705863,0.14014 0.817883,0.58644 0.12166,0.48474 -0.51142,1.49613 -3.649774,5.83076 -2.088331,2.88437 -3.910747,5.32379 -4.04981,5.42095 -0.381206,0.26633 -0.963185,0.21905 -1.286752,-0.10448 z m -43.568346,-3.46968 c -7.458601,-1.43951 -13.098116,-6.19854 -15.365635,-12.96662 -2.755705,-8.22523 -0.03984,-16.878612 6.919667,-22.047711 5.391888,-4.004772 13.222237,-4.803819 19.415451,-1.981249 5.496925,2.505225 9.434313,7.209307 10.930335,13.058691 0.642975,2.514009 0.63303,6.745629 -0.02191,9.322819 -1.725083,6.78821 -7.138472,12.33593 -13.823054,14.16607 -1.41702,0.38797 -6.811356,0.68798 -8.054854,0.448 z m 7.814411,-2.50309 c 1.925508,-0.59325 4.293729,-1.78796 5.942601,-2.9979 1.308297,-0.96004 3.51221,-3.54212 4.513205,-5.28763 2.010443,-3.50575 2.699552,-8.46847 1.720115,-12.38765 -2.028866,-8.118424 -8.769254,-13.460011 -16.984789,-13.460011 -6.709143,0 -12.582481,3.594921 -15.516907,9.497512 -5.285842,10.632459 0.954531,22.987909 12.694915,25.134959 1.84732,0.33783 5.740621,0.0831 7.63086,-0.49928 z m -8.859141,-6.44103 c -0.320291,-0.35391 -0.397931,-0.96377 -0.397931,-3.12577 V 108.875 h -2.727832 c -3.668982,0 -3.523695,0.19041 -3.523695,-4.61802 0,-2.79015 0.07996,-3.80497 0.315189,-4.0002 0.174435,-0.14477 1.543467,-0.292129 3.065654,-0.329989 l 2.750463,-0.0684 0.120221,-2.87898 c 0.14969,-3.58463 0.02344,-3.485687 4.448204,-3.485687 4.424773,0 4.298513,-0.09891 4.448202,3.485687 l 0.120223,2.87898 2.750463,0.0684 c 1.522186,0.0379 2.891219,0.185219 3.065654,0.329989 0.2355,0.19545 0.31519,1.21737 0.31519,4.04197 0,4.76886 0.15006,4.57625 -3.565474,4.57625 h -2.686056 v 2.72783 c 0,3.65855 0.171817,3.5237 -4.489981,3.5237 -3.192494,0 -3.656639,-0.0509 -4.008494,-0.43971 z m 6.574928,-4.60959 v -3.12577 h 3.125766 3.125763 v -2.52466 -2.52465 H 56.786502 53.660736 V 98.776391 95.65062 h -2.524655 -2.524656 v 3.125771 3.125759 h -3.125764 -3.125764 v 2.52465 2.52466 h 3.125764 3.125764 v 3.12577 3.12576 h 2.524656 2.524655 z m 94.989704,12.49378 c -4.22783,-0.57891 -7.77697,-2.29057 -10.92282,-5.2678 -2.59264,-2.45368 -4.26073,-5.2077 -5.35137,-8.83517 -0.8524,-2.83503 -0.90312,-7.12162 -0.11879,-10.039349 1.78535,-6.641603 6.71798,-11.746117 13.37288,-13.838858 2.38154,-0.748916 6.56662,-0.919889 9.24291,-0.377602 9.18619,1.861358 15.64674,9.716417 15.63712,19.012349 -0.006,5.0194 -1.68537,9.40762 -5.04886,13.18648 -3.978,4.46927 -10.82788,6.97922 -16.81107,6.15995 z m 6.82484,-2.39178 c 5.03005,-1.28647 9.61978,-5.22883 11.64884,-10.00583 0.7176,-1.68941 1.54102,-5.07417 1.32101,-5.43014 -0.0668,-0.10788 -1.49743,-0.19624 -3.17941,-0.19624 h -3.05815 l -1.99839,1.81724 c -2.28566,2.07849 -2.76342,2.1828 -3.51845,0.76823 -0.26448,-0.49551 -0.56439,-0.87343 -0.66646,-0.8398 -0.1021,0.0336 -0.79093,1.35877 -1.53078,2.94473 -0.73988,1.58596 -1.53629,3.08425 -1.76982,3.32952 -0.53353,0.56033 -1.39657,0.33698 -1.55281,-0.40186 -0.061,-0.28873 -0.23193,-2.95876 -0.3797,-5.93339 -0.14778,-2.97463 -0.31193,-5.45166 -0.36478,-5.5045 -0.0529,-0.0529 -0.14426,0.0547 -0.20314,0.23888 -0.0589,0.18423 -0.34112,1.06642 -0.6272,1.96043 -0.51497,1.60936 -0.98346,2.14454 -1.68149,1.92086 -0.19837,-0.0636 -1.07066,-0.8103 -1.93844,-1.65941 l -1.57777,-1.54382 -0.57778,1.23356 c -0.88823,1.8964 -0.92896,1.90978 -5.8177,1.90978 -4.87724,0 -4.51711,-0.21784 -3.90844,2.36409 1.47836,6.27097 6.45923,11.39309 12.65783,13.01678 2.44503,0.64045 6.2429,0.64519 8.72303,0.0113 z m 0.42351,-17.27015 c 0.56776,-0.0655 0.74746,0.0963 1.4095,1.2694 0.85856,1.52129 0.6749,1.54792 2.79437,-0.40508 l 1.24794,-1.14992 h 3.63834 3.63835 l -0.1685,-1.38255 c -0.39382,-3.231399 -1.87513,-6.598357 -4.07793,-9.268928 -1.645,-1.994289 -3.04634,-3.061203 -5.76613,-4.390066 -9.90799,-4.840904 -21.68137,0.722611 -24.40686,11.533465 -0.26371,1.046039 -0.47949,2.263289 -0.47949,2.704989 v 0.80309 h 4.03482 4.03481 l 0.89231,-1.80333 c 1.13776,-2.299369 1.43743,-2.326509 3.46797,-0.31402 0.82646,0.81912 1.54735,1.44127 1.60196,1.38255 0.0546,-0.0587 0.67971,-1.892049 1.38913,-4.074069 1.28386,-3.948969 1.2933,-3.96766 2.04058,-4.040373 0.50544,-0.04923 0.79735,0.04843 0.89337,0.298645 0.0785,0.204434 0.26148,3.050508 0.40673,6.324587 0.14523,3.27408 0.32423,6.22337 0.39776,6.55399 0.11381,0.51177 0.2991,0.26166 1.24696,-1.68311 0.95985,-1.96938 1.20297,-2.29456 1.76401,-2.35927 z M 51.196192,82.505955 c -0.597586,-0.1633 -0.528347,-0.521936 0.36408,-1.885799 0.847525,-1.295243 1.686129,-1.589275 2.19448,-0.769427 0.211704,0.341423 0.137708,0.663478 -0.359081,1.562881 -0.628376,1.137631 -1.127193,1.385361 -2.199479,1.092345 z M 148.54332,80.87181 c -0.46259,-0.705978 -0.49052,-1.132523 -0.0998,-1.523253 0.60677,-0.606769 1.32887,-0.322676 1.97283,0.776168 0.34318,0.585584 0.62395,1.126583 0.62395,1.202217 0,0.07563 -0.47445,0.137516 -1.05433,0.137516 -0.8553,0 -1.12765,-0.111891 -1.44265,-0.592648 z M 98.102087,79.070986 C 90.301934,77.63987 84.232358,72.068262 82.243176,64.513199 81.578339,61.988097 81.530872,57.77979 82.140561,55.415736 c 1.178983,-4.571474 3.469046,-8.16063 6.94663,-10.887297 5.486085,-4.30147 12.677329,-5.327149 19.308289,-2.753927 5.84571,2.268505 10.71406,8.148188 11.84625,14.307216 0.41922,2.280501 0.322,6.004308 -0.21528,8.245341 -1.65589,6.906896 -7.03177,12.435027 -13.86107,14.253595 -2.11166,0.562314 -6.287039,0.816215 -8.063293,0.490322 z m 7.253973,-2.347674 c 1.76684,-0.419947 4.5834,-1.769472 6.37139,-3.052773 0.66101,-0.474435 1.82298,-1.59283 2.58214,-2.48532 2.57877,-3.031674 3.97287,-6.485087 4.20149,-10.407838 0.47154,-8.090403 -4.66717,-15.369478 -12.52547,-17.7425 -1.56077,-0.471315 -2.50615,-0.592676 -4.71708,-0.605539 -3.373945,-0.01964 -5.026886,0.371754 -8.175083,1.935707 -3.969137,1.971778 -7.158079,5.709181 -8.574782,10.049526 -0.901866,2.763043 -1.052692,6.719952 -0.360485,9.457264 1.50644,5.957174 5.776133,10.601439 11.513569,12.523644 2.956076,0.990368 6.405541,1.107138 9.684311,0.327829 z m -4.1459,-6.330321 C 99.260122,69.91382 97.568096,68.282897 96.806843,66.148698 96.6275,65.645905 96.473271,64.477132 96.464119,63.551426 l -0.0166,-1.683105 -1.496677,-0.72133 c -1.148804,-0.553668 -1.676816,-0.990857 -2.271653,-1.880914 -1.097951,-1.642871 -1.265947,-2.483977 -1.26746,-6.345812 -0.0011,-3.885252 0.01398,-3.915665 1.997177,-3.915665 1.193403,0 1.687854,0.393781 1.566481,1.247546 -0.05685,0.400084 -0.27774,0.587374 -0.799896,0.678315 l -0.721338,0.12563 0.0045,2.761237 c 0.0034,2.205146 0.09527,2.94556 0.454614,3.676474 1.417789,2.883497 5.203479,3.123333 6.906743,0.437566 0.66206,-1.043954 0.6889,-1.201569 0.6889,-4.044753 0,-2.926802 -0.006,-2.958469 -0.55302,-2.958469 -1.03355,0 -1.447452,-0.850494 -0.75224,-1.545707 0.50922,-0.509226 2.58219,-0.509226 3.09141,0 0.52651,0.526506 0.53706,6.212022 0.0147,7.970679 -0.47963,1.615108 -2.16485,3.497377 -3.633361,4.058206 l -1.097673,0.419206 0.08254,2.081867 c 0.07299,1.841983 0.160119,2.183577 0.75615,2.96458 0.866414,1.13531 1.793054,1.603538 3.173444,1.603538 1.92714,0 3.38317,-1.198845 3.94237,-3.245985 0.46145,-1.689331 0.35354,-2.222569 -0.57131,-2.823001 -0.79139,-0.513796 -1.56774,-1.868579 -1.56774,-2.735837 0,-0.746074 0.81576,-2.079637 1.54365,-2.523506 0.94744,-0.577754 2.45725,-0.577754 3.40469,0 0.72789,0.443869 1.54363,1.777432 1.54363,2.523506 0,0.815656 -0.76878,2.2372 -1.41696,2.620091 -0.61795,0.365028 -0.69251,0.554708 -0.79849,2.03135 -0.18219,2.537977 -1.41175,4.564809 -3.34986,5.521963 -1.26893,0.626674 -2.89718,0.842106 -4.11079,0.543895 z m 7.04704,-9.615125 c 0.5271,-0.282097 0.63373,-1.409803 0.17654,-1.866999 -0.1587,-0.158692 -0.51575,-0.288531 -0.79346,-0.288531 -0.69006,0 -1.082,0.448576 -1.082,1.238358 0,0.952122 0.81326,1.391163 1.69892,0.917172 z M 54.482227,77.021928 c -0.209329,-0.834032 1.378484,-3.011216 2.196071,-3.011216 0.859514,0 1.210191,0.826726 0.695274,1.639117 -1.21376,1.914966 -2.591051,2.568566 -2.891345,1.372099 z m 90.910853,-0.842883 c -1.03585,-1.411104 -1.06789,-2.248773 -0.0904,-2.362025 0.50176,-0.05813 0.81552,0.147843 1.50276,0.986537 0.90035,1.098756 1.07565,1.789249 0.58008,2.284832 -0.54578,0.545761 -1.11509,0.285931 -1.9925,-0.909344 z M 58.615552,72.187722 c -0.246761,-0.643046 -0.178245,-0.797591 0.84645,-1.909254 1.08118,-1.172942 1.945329,-1.396362 2.36535,-0.611543 0.348874,0.651875 0.357967,0.629561 -0.743493,1.824505 -1.052351,1.141666 -2.17579,1.45858 -2.468307,0.696292 z m 82.616638,-0.891098 c -1.10237,-1.123228 -1.28604,-1.931105 -0.53094,-2.335223 0.60724,-0.324987 1.12865,-0.06044 2.13102,1.081174 0.79759,0.908404 0.94064,1.521626 0.46576,1.996503 -0.50427,0.504279 -1.02643,0.316615 -2.06584,-0.742454 z M 63.567005,67.951539 c -0.558947,-0.558946 -0.301038,-1.282285 0.779147,-2.185207 1.106564,-0.924973 1.755305,-1.099071 2.250439,-0.603935 0.548696,0.548695 0.283601,1.146843 -0.935275,2.110309 -1.302731,1.02975 -1.635525,1.137619 -2.094311,0.678833 z m 72.921105,-1.184751 c -1.09494,-1.00928 -1.30589,-1.567473 -0.78809,-2.085279 0.48599,-0.485984 0.98575,-0.326709 2.17602,0.693502 1.15005,0.985746 1.38547,1.563736 0.85357,2.095641 -0.50974,0.509735 -1.1394,0.312011 -2.2415,-0.703864 z M 68.616316,63.864002 c -0.456808,-0.45681 -0.343847,-0.824393 0.461623,-1.502151 1.235908,-1.039947 2.068508,-1.387675 2.618224,-1.093476 0.869448,0.465314 0.597324,1.315257 -0.68444,2.137764 -1.237354,0.794008 -1.927371,0.925899 -2.395407,0.457863 z m 62.647524,-0.944968 c -1.21991,-0.797847 -1.48496,-1.548837 -0.7592,-2.151166 0.32307,-0.268122 0.55089,-0.22867 1.45782,0.252454 1.41418,0.750225 2.07964,1.584276 1.75217,2.196136 -0.35013,0.654241 -1.14275,0.558049 -2.45079,-0.297424 z M 74.468309,60.702578 c -0.781473,-0.571428 -0.372732,-1.416765 1.02836,-2.126801 1.464357,-0.742097 2.32863,-0.634984 2.32863,0.288597 0,0.991821 -2.581398,2.405331 -3.35699,1.838204 z m 51.228271,-0.936013 c -1.19234,-0.689866 -1.55583,-1.236983 -1.19948,-1.805449 0.4009,-0.639546 1.05568,-0.605991 2.37866,0.121895 1.02796,0.565578 1.20221,0.765862 1.20221,1.381828 0,0.626295 -0.0943,0.728507 -0.72133,0.782613 -0.4119,0.03554 -1.12402,-0.17075 -1.66006,-0.480887 z"
       id="path1"
       sodipodi:nodetypes="ccsscssscssscccssssccssscssscssscssssssccccccsssccccccccccsssssssscsssccccsssscsssssssscccssscsscccsscccsssscssccccccccccccccsscccsscsssccssssccsccsssccsscsssssssccsssssssssssssssssssssssssssssssssscsscsscsscssscsscccscscssscssccssscssscssscccscccsssccsscccccssscssssssssssssssssssssssssssssssssssssscsssccsssccssscssscccccccccccccccccccccccccsssssscsscscscsssssssssssscssssccssscccsscsscccsssscsssssssssssssssssssssssssssssssssssssssccsscscscccsssssssccsssssssssssssssssssssscsssccssssssssssssssssssssssssssssssssssssssss" /></g></svg>
