<?xml version="1.0" encoding="UTF-8" standalone="no"?>
<!-- Created with Inkscape (http://www.inkscape.org/) -->

<svg
   width="109mm"
   height="39.382mm"
   viewBox="0 0 109 39.382"
   version="1.1"
   id="svg223"
   sodipodi:docname="lvr_logo.svg"
   inkscape:version="1.3.2 (091e20e, 2023-11-25)"
   xmlns:inkscape="http://www.inkscape.org/namespaces/inkscape"
   xmlns:sodipodi="http://sodipodi.sourceforge.net/DTD/sodipodi-0.dtd"
   xmlns="http://www.w3.org/2000/svg"
   xmlns:svg="http://www.w3.org/2000/svg"
   xmlns:rdf="http://www.w3.org/1999/02/22-rdf-syntax-ns#"
   xmlns:cc="http://creativecommons.org/ns#"
   xmlns:dc="http://purl.org/dc/elements/1.1/">
  <defs
     id="defs217">
    <clipPath
       clipPathUnits="userSpaceOnUse"
       id="clipPath74">
      <path
         d="m 178.795,14.45 h 79.37 v 32.052 h -79.37 z"
         id="path72"
         inkscape:connector-curvature="0" />
    </clipPath>
  </defs>
  <sodipodi:namedview
     id="base"
     pagecolor="#ffffff"
     bordercolor="#666666"
     borderopacity="1.0"
     inkscape:pageopacity="0.0"
     inkscape:pageshadow="2"
     inkscape:zoom="0.84063616"
     inkscape:cx="180.81544"
     inkscape:cy="51.151737"
     inkscape:document-units="mm"
     inkscape:current-layer="g62"
     showgrid="false"
     inkscape:window-width="1312"
     inkscape:window-height="449"
     inkscape:window-x="0"
     inkscape:window-y="25"
     inkscape:window-maximized="0"
     fit-margin-top="0"
     fit-margin-left="0"
     fit-margin-right="0"
     fit-margin-bottom="0"
     inkscape:showpageshadow="2"
     inkscape:pagecheckerboard="0"
     inkscape:deskcolor="#d1d1d1" />
  <metadata
     id="metadata220">
    <rdf:RDF>
      <cc:Work
         rdf:about="">
        <dc:format>image/svg+xml</dc:format>
        <dc:type
           rdf:resource="http://purl.org/dc/dcmitype/StillImage" />
      </cc:Work>
    </rdf:RDF>
  </metadata>
  <g
     inkscape:label="Ebene 1"
     inkscape:groupmode="layer"
     id="layer1"
     transform="translate(-71.422457,-64.967679)">
    <g
       id="g62"
       transform="matrix(0.35277777,0,0,-0.35277777,8.3475557,110.44786)">
      <g
         id="g68"
         transform="matrix(3.2763345,0,0,3.2763345,-382.5307,-26.747197)">
        <g
           id="g70"
           clip-path="url(#clipPath74)">
          <g
             id="g76"
             transform="translate(221.2585,38.7323)">
            <path
               d="M 0,0 C 0.348,-0.333 0.523,-0.724 0.523,-1.173 0.523,-1.623 0.348,-2.013 0,-2.347 -0.349,-2.68 -0.821,-2.846 -1.417,-2.846 h -2.53 v 3.345 h 2.53 C -0.821,0.499 -0.349,0.333 0,0 m 5.966,-12.417 -3.935,6.923 c 0.818,0.371 1.516,0.924 2.095,1.661 0.579,0.735 0.869,1.622 0.869,2.66 0,1.455 -0.549,2.707 -1.648,3.752 -1.099,1.045 -2.62,1.568 -4.559,1.568 h -7.206 v -16.564 h 4.471 v 6.179 h 1.508 l 3.217,-6.179 M -11.18,4.147 h -4.652 l -3.015,-9.247 -3.067,9.247 h -4.625 l 6.005,-16.564 h 3.323 m 30.223,11.691 c 0.282,-0.147 0.536,-0.174 0.781,-0.177 0.818,0.016 1.762,0.36 3.025,1.058 0.435,0.245 0.588,0.798 0.345,1.234 C 16.918,1.826 16.367,1.981 15.931,1.736 15.002,1.201 14.253,0.966 13.923,0.919 13.726,1.111 13.444,1.212 13.152,1.165 12.66,1.089 12.321,0.625 12.398,0.131 c 0.045,-0.368 0.334,-0.723 0.614,-0.857 m -38.891,-11.691 v 3.623 H -33.52 V 4.147 h -4.472 v -16.564 m 59.939,-1.213 c 0.012,-0.179 0.02,-0.358 0.02,-0.535 -10e-4,-0.624 -0.088,-1.235 -0.301,-1.876 H -42.463 V 7.77 H 19.425 C 19.152,7.182 18.771,6.434 18.766,5.41 c 0,-0.034 0,-0.067 0.001,-0.099 0.022,-0.369 0.113,-0.752 0.282,-1.138 0.391,-0.896 1.262,-2.427 2.074,-4.004 0.82,-1.54 1.557,-3.292 1.555,-3.719 0,-0.003 0,-0.006 0,-0.01 -0.117,-0.188 -0.486,-0.499 -0.962,-0.875 -0.5,-0.395 -1.24,-1.115 -1.242,-2.23 0,-0.061 0.002,-0.123 0.007,-0.184 10e-4,-0.037 0.007,-0.1 0.02,-0.175 0.159,-1.23 0.485,-2.379 0.787,-3.463 -0.228,-0.009 -0.457,-0.015 -0.679,-0.015 -1.723,0 -3.247,0.272 -4.417,0.598 -0.683,0.192 -1.241,0.398 -1.633,0.572 -0.194,0.087 -0.352,0.164 -0.446,0.219 -0.05,0.028 -0.086,0.051 -0.103,0.061 h 10e-4 c -0.205,0.186 -0.484,0.286 -0.758,0.286 -0.292,0 -0.586,-0.116 -0.802,-0.344 -0.202,-0.213 -0.301,-0.492 -0.301,-0.765 0,-0.312 0.127,-0.629 0.374,-0.861 0.36,-0.313 0.68,-0.454 1.193,-0.687 1.342,-0.569 3.742,-1.273 6.701,-1.273 0.365,0 0.74,0.008 1.122,0.032 h 0.007 c 0.089,0.005 0.179,0.014 0.268,0.021 0.061,-0.334 0.111,-0.663 0.132,-0.987"
               style="fill:#00559d;fill-opacity:1;fill-rule:nonzero;stroke:none"
               id="path78"
               inkscape:connector-curvature="0" />
            <g
               id="g80"
               transform="translate(-41.3563,-19.2088)">
              <path
                 d="m 0,0 c -0.158,-0.166 -0.263,-0.371 -0.314,-0.625 -0.04,-0.218 -0.062,-0.64 -0.062,-1.256 0,-0.615 0.022,-1.037 0.062,-1.255 0.051,-0.254 0.156,-0.459 0.313,-0.625 0.251,-0.256 0.554,-0.382 0.923,-0.383 0.254,0 0.482,0.069 0.692,0.211 l -0.7,0.706 0.048,0.047 0.408,0.411 0.67,-0.674 c 0.065,0.137 0.113,0.313 0.139,0.525 0.026,0.2 0.039,0.548 0.039,1.037 0,0.616 -0.022,1.038 -0.063,1.255 C 2.105,-0.371 2,-0.166 1.843,0 1.59,0.256 1.289,0.384 0.922,0.384 0.553,0.384 0.25,0.256 0,0 m 2.12,-4.441 c -0.344,-0.25 -0.745,-0.375 -1.198,-0.375 -0.583,0 -1.082,0.202 -1.481,0.606 -0.252,0.251 -0.413,0.561 -0.483,0.923 -0.045,0.248 -0.065,0.713 -0.065,1.406 0,0.695 0.02,1.161 0.065,1.408 0.07,0.361 0.231,0.67 0.483,0.922 0.399,0.404 0.898,0.607 1.481,0.607 0.581,0 1.079,-0.203 1.48,-0.607 0.25,-0.252 0.412,-0.561 0.482,-0.922 0.043,-0.247 0.064,-0.713 0.065,-1.408 0,-0.631 -0.015,-1.057 -0.048,-1.295 C 2.855,-3.494 2.75,-3.769 2.584,-3.992 L 3.158,-4.569 3.111,-4.614 3.158,-4.569 3.204,-4.614 3.158,-4.662 2.748,-5.073"
                 style="fill:#000000;fill-opacity:1;fill-rule:nonzero;stroke:none"
                 id="path82"
                 inkscape:connector-curvature="0" />
              <g
                 id="g84"
                 transform="translate(4.6549,-4.4335)">
                <path
                   d="m 0,0 c -0.277,0.275 -0.414,0.661 -0.414,1.142 v 2.554 h 0.066 0.634 V 1.229 c 0.012,-0.672 0.276,-0.961 0.88,-0.971 0.287,0 0.501,0.082 0.66,0.25 0.159,0.163 0.242,0.399 0.242,0.721 V 3.696 H 2.134 2.768 V -0.268 -0.334 H 2.703 2.068 v 0.066 0.272 C 1.795,-0.253 1.449,-0.382 1.042,-0.382 0.613,-0.382 0.258,-0.254 0,0"
                   style="fill:#000000;fill-opacity:1;fill-rule:nonzero;stroke:none"
                   id="path86"
                   inkscape:connector-curvature="0" />
                <g
                   id="g88"
                   transform="translate(4.5883,0.8411)">
                  <path
                     d="m 0,0 c 0.006,-0.406 0.241,-0.591 0.823,-0.599 0.39,0 0.661,0.086 0.82,0.242 0.111,0.106 0.177,0.313 0.177,0.626 V 0.624 H 0.799 C 0.235,0.613 0.006,0.425 0,0 m -0.375,-0.846 c -0.207,0.214 -0.31,0.498 -0.308,0.839 -0.002,0.362 0.122,0.66 0.37,0.872 0.249,0.216 0.599,0.319 1.034,0.319 H 1.82 V 1.489 C 1.811,2.03 1.537,2.27 0.893,2.28 0.466,2.279 0.167,2.141 -0.03,1.864 l -0.042,-0.061 -0.056,0.051 -0.43,0.398 0.037,0.047 C -0.348,2.522 -0.144,2.685 0.088,2.781 0.3,2.864 0.571,2.903 0.902,2.903 1.951,2.902 2.517,2.437 2.519,1.537 V -1.109 -1.175 H 2.453 1.82 v 0.066 0.224 C 1.542,-1.112 1.189,-1.223 0.768,-1.223 c -0.509,0 -0.894,0.121 -1.143,0.377"
                     style="fill:#000000;fill-opacity:1;fill-rule:nonzero;stroke:none"
                     id="path90"
                     inkscape:connector-curvature="0" />
                  <g
                     id="g92"
                     transform="translate(4.1639,-0.8685)">
                    <path
                       d="m 0,0 c -0.177,0.206 -0.265,0.476 -0.265,0.796 v 4.672 h 0.066 0.633 V 0.821 C 0.445,0.459 0.569,0.327 0.888,0.318 H 1.262 V 0.251 -0.241 -0.307 H 1.196 0.785 0.779 C 0.445,-0.307 0.179,-0.206 0,0"
                       style="fill:#000000;fill-opacity:1;fill-rule:nonzero;stroke:none"
                       id="path94"
                       inkscape:connector-curvature="0" />
                    <g
                       id="g96"
                       transform="translate(2.9197,4.7004)">
                      <path
                         d="m 0,0 h -0.703 v 0.068 0.708 h 0.066 0.703 V 0.709 0.068 0 m -0.104,-5.009 h -0.633 v 4.034 h 0.066 0.631 v -3.967 -0.067"
                         style="fill:#000000;fill-opacity:1;fill-rule:nonzero;stroke:none"
                         id="path98"
                         inkscape:connector-curvature="0" />
                      <g
                         id="g100"
                         transform="translate(1.8496,-4.6758)">
                        <path
                           d="m 0,0 c -0.181,0.199 -0.27,0.462 -0.27,0.78 v 2.328 h -0.489 v 0.066 0.503 h 0.067 0.422 V 4.898 H -0.203 0.43 V 3.677 H 1.258 V 3.61 3.108 H 1.191 0.43 V 0.796 C 0.44,0.437 0.567,0.302 0.893,0.294 H 1.258 V 0.227 -0.265 -0.332 H 1.191 0.79 0.784 C 0.453,-0.332 0.184,-0.221 0,0"
                           style="fill:#000000;fill-opacity:1;fill-rule:nonzero;stroke:none"
                           id="path102"
                           inkscape:connector-curvature="0" />
                        <g
                           id="g104"
                           transform="translate(3.1926,4.4379)">
                          <path
                             d="m 0,0 h -0.634 v 0.069 0.772 h 0.066 0.634 V 0.772 0.069 0 M 1.67,0 H 1.036 V 0.069 0.841 H 1.102 1.735 V 0.772 0.069 0 m -2.143,-3.594 c 0.008,-0.406 0.243,-0.591 0.825,-0.6 0.39,0 0.66,0.087 0.82,0.243 0.111,0.106 0.178,0.313 0.177,0.626 v 0.354 H 0.393 C -0.171,-2.981 -0.4,-3.169 -0.408,-3.594 M -0.781,-4.44 c -0.206,0.214 -0.31,0.498 -0.31,0.839 0,0.362 0.125,0.66 0.373,0.872 0.249,0.215 0.596,0.32 1.033,0.32 h 1.099 v 0.304 C 1.406,-1.564 1.133,-1.324 0.487,-1.314 0.061,-1.315 -0.237,-1.453 -0.435,-1.73 l -0.044,-0.061 -0.054,0.051 -0.43,0.398 0.036,0.046 c 0.174,0.224 0.378,0.387 0.61,0.483 0.211,0.083 0.481,0.122 0.812,0.122 1.051,-0.001 1.617,-0.466 1.618,-1.366 V -4.703 -4.769 H 2.047 1.414 v 0.066 0.223 C 1.136,-4.706 0.783,-4.817 0.363,-4.817 c -0.509,0 -0.895,0.121 -1.144,0.377"
                             style="fill:#000000;fill-opacity:1;fill-rule:nonzero;stroke:none"
                             id="path106"
                             inkscape:connector-curvature="0" />
                          <g
                             id="g108"
                             transform="translate(3.8801,-4.4379)">
                            <path
                               d="m 0,0 c -0.181,0.199 -0.269,0.462 -0.269,0.78 v 2.328 h -0.488 v 0.066 0.503 h 0.066 0.422 v 1.221 h 0.067 0.633 V 3.677 H 1.257 V 3.61 3.108 H 1.192 0.431 V 0.796 C 0.441,0.437 0.568,0.302 0.893,0.294 H 1.257 V 0.227 -0.265 -0.332 H 1.192 0.789 0.783 C 0.453,-0.332 0.184,-0.221 0,0"
                               style="fill:#000000;fill-opacity:1;fill-rule:nonzero;stroke:none"
                               id="path110"
                               inkscape:connector-curvature="0" />
                            <g
                               id="g112"
                               transform="translate(5.279,-0.333)">
                              <path
                                 d="M 0,0 H -0.634 V 3.44 H -1.129 V 3.507 4.01 h 0.067 0.428 v 0.672 c 0,0.32 0.087,0.586 0.262,0.784 0.19,0.223 0.461,0.336 0.789,0.336 H 0.894 V 5.733 5.177 H 0.827 0.519 C 0.201,5.168 0.077,5.032 0.067,4.668 L 0.065,4.01 H 0.894 V 3.943 3.507 3.44 H 0.827 0.067 V 0"
                                 style="fill:#000000;fill-opacity:1;fill-rule:nonzero;stroke:none"
                                 id="path114"
                                 inkscape:connector-curvature="0" />
                              <g
                                 id="g116"
                                 transform="translate(2.8672,4.7709)">
                                <path
                                   d="m 0,0 h -0.633 v 0.069 0.772 h 0.065 0.634 V 0.772 0.069 0 M 1.669,0 H 1.036 V 0.069 0.841 H 1.103 1.735 V 0.772 0.069 0 m -2.35,-4.435 c -0.277,0.275 -0.413,0.661 -0.413,1.142 v 2.554 h 0.067 0.633 v -2.467 c 0.011,-0.673 0.278,-0.961 0.879,-0.971 0.286,0 0.502,0.081 0.662,0.251 0.158,0.162 0.241,0.397 0.241,0.72 v 2.467 H 1.52 2.153 V -4.703 -4.769 H 2.087 1.454 v 0.066 0.271 c -0.273,-0.256 -0.62,-0.385 -1.025,-0.385 -0.431,0 -0.785,0.128 -1.044,0.382"
                                   style="fill:#000000;fill-opacity:1;fill-rule:nonzero;stroke:none"
                                   id="path118"
                                   inkscape:connector-curvature="0" />
                                <g
                                   id="g120"
                                   transform="translate(4.229,-4.7709)">
                                <path
                                   d="m 0,0 h -0.633 v 4.034 h 0.067 0.633 V 3.967 3.685 c 0.24,0.264 0.586,0.396 1.021,0.396 0.392,0 0.724,-0.129 0.977,-0.384 L 2.018,3.65 2.065,3.697 2.111,3.651 1.6,3.128 1.552,3.175 C 1.374,3.354 1.17,3.44 0.931,3.44 0.668,3.44 0.468,3.351 0.307,3.168 0.147,2.981 0.067,2.75 0.067,2.461 V 0"
                                   style="fill:#000000;fill-opacity:1;fill-rule:nonzero;stroke:none"
                                   id="path122"
                                   inkscape:connector-curvature="0" />
                                <g
                                   id="g124"
                                   transform="translate(9.9335)">
                                <path
                                   d="M 0,0 H -0.666 V 4.048 L -2.093,0.888 H -2.135 -2.689 L -4.14,4.052 V 0 h -0.066 -0.665 v 5.777 h 0.066 0.641 l 1.783,-3.909 1.739,3.909 h 0.043 0.665 V 0.067 0"
                                   style="fill:#000000;fill-opacity:1;fill-rule:nonzero;stroke:none"
                                   id="path126"
                                   inkscape:connector-curvature="0" />
                                <g
                                   id="g128"
                                   transform="translate(4.0091,2.3614)">
                                <path
                                   d="M 0,0 C -0.018,0.238 -0.056,0.424 -0.109,0.558 -0.265,0.926 -0.531,1.1 -0.954,1.103 -1.374,1.1 -1.64,0.926 -1.796,0.559 -1.851,0.424 -1.89,0.238 -1.908,0 m -0.221,-1.903 c -0.325,0.354 -0.482,0.878 -0.482,1.559 0,0.638 0.144,1.145 0.44,1.511 0.296,0.367 0.709,0.552 1.217,0.552 0.514,0 0.929,-0.177 1.221,-0.532 0.294,-0.351 0.436,-0.829 0.436,-1.422 v -0.261 -0.065 h -2.614 c 0.01,-0.383 0.106,-0.674 0.28,-0.88 0.185,-0.217 0.443,-0.327 0.795,-0.327 0.367,0 0.686,0.136 0.97,0.416 L 0.178,-1.308 0.225,-1.35 0.664,-1.733 0.613,-1.785 C 0.4,-2.001 0.193,-2.156 -0.011,-2.251 c -0.238,-0.105 -0.518,-0.157 -0.84,-0.157 -0.543,0 -0.975,0.167 -1.278,0.505"
                                   style="fill:#000000;fill-opacity:1;fill-rule:nonzero;stroke:none"
                                   id="path130"
                                   inkscape:connector-curvature="0" />
                                <g
                                   id="g132"
                                   transform="translate(5.0499,-2.3614)">
                                <path
                                   d="m 0,0 h -0.634 v 2.468 c -0.011,0.673 -0.28,0.962 -0.887,0.972 -0.287,0 -0.5,-0.084 -0.658,-0.249 -0.157,-0.163 -0.236,-0.4 -0.236,-0.723 V 0 h -0.068 -0.633 v 4.034 h 0.067 0.634 V 3.967 3.702 c 0.273,0.252 0.617,0.379 1.021,0.379 0.425,0 0.777,-0.128 1.038,-0.384 C -0.074,3.42 0.065,3.034 0.065,2.562 V 0.067 0"
                                   style="fill:#000000;fill-opacity:1;fill-rule:nonzero;stroke:none"
                                   id="path134"
                                   inkscape:connector-curvature="0" />
                                <g
                                   id="g136"
                                   transform="translate(1.126,0.5337)">
                                <path
                                   d="M 0,0 -0.048,0.049 0.426,0.524 0.472,0.473 C 0.742,0.189 1.122,0.044 1.629,0.044 2.31,0.053 2.592,0.251 2.595,0.667 2.59,0.976 2.425,1.128 2.009,1.173 L 1.372,1.228 c -0.788,0.061 -1.225,0.45 -1.219,1.111 0,0.365 0.144,0.668 0.424,0.885 0.278,0.217 0.637,0.323 1.069,0.323 0.599,0 1.078,-0.143 1.436,-0.435 L 3.136,3.066 3.086,3.014 2.677,2.6 2.629,2.636 C 2.376,2.832 2.047,2.931 1.637,2.931 1.071,2.922 0.843,2.745 0.836,2.354 0.843,2.054 1.016,1.898 1.454,1.849 L 2.078,1.794 C 2.855,1.733 3.285,1.341 3.28,0.674 3.281,0.288 3.124,-0.027 2.823,-0.251 2.523,-0.473 2.124,-0.579 1.637,-0.579 0.953,-0.579 0.403,-0.388 0,0"
                                   style="fill:#000000;fill-opacity:1;fill-rule:nonzero;stroke:none"
                                   id="path138"
                                   inkscape:connector-curvature="0" />
                                <g
                                   id="g140"
                                   transform="translate(4.708,-0.0601)">
                                <path
                                   d="m 0,0 c -0.347,0.371 -0.514,0.888 -0.514,1.543 0,0.656 0.167,1.174 0.513,1.543 0.317,0.347 0.745,0.521 1.271,0.521 0.279,0 0.519,-0.043 0.719,-0.133 C 2.19,3.385 2.39,3.226 2.594,3.006 L 2.637,2.96 2.155,2.503 2.109,2.553 C 1.856,2.833 1.58,2.966 1.27,2.966 0.897,2.966 0.624,2.83 0.426,2.553 0.27,2.329 0.184,1.995 0.185,1.543 0.184,1.091 0.27,0.756 0.426,0.536 0.624,0.256 0.897,0.121 1.27,0.12 c 0.303,0 0.58,0.135 0.839,0.423 L 2.155,0.592 2.205,0.545 2.591,0.173 2.545,0.123 2.591,0.173 2.637,0.13 2.594,0.08 C 2.39,-0.141 2.19,-0.298 1.989,-0.388 1.789,-0.477 1.55,-0.52 1.27,-0.52 0.744,-0.52 0.316,-0.346 0,0"
                                   style="fill:#000000;fill-opacity:1;fill-rule:nonzero;stroke:none"
                                   id="path142"
                                   inkscape:connector-curvature="0" />
                                <g
                                   id="g144"
                                   transform="translate(6.8299,-0.4736)">
                                <path
                                   d="M 0,0 H -0.633 V 2.476 C -0.644,3.144 -0.91,3.43 -1.512,3.44 -1.8,3.44 -2.014,3.358 -2.173,3.196 -2.333,3.034 -2.414,2.8 -2.414,2.476 V 0 h -0.067 -0.633 v 5.777 h 0.066 0.634 V 3.702 c 0.273,0.252 0.618,0.379 1.02,0.379 0.447,0 0.811,-0.136 1.072,-0.408 C -0.063,3.398 0.066,3.028 0.066,2.571 V 0.067 0"
                                   style="fill:#000000;fill-opacity:1;fill-rule:nonzero;stroke:none"
                                   id="path146"
                                   inkscape:connector-curvature="0" />
                                <g
                                   id="g148"
                                   transform="translate(3.868,2.3614)">
                                <path
                                   d="M 0,0 C -0.018,0.238 -0.056,0.424 -0.11,0.558 -0.265,0.926 -0.531,1.1 -0.953,1.103 -1.374,1.1 -1.641,0.926 -1.798,0.559 -1.852,0.424 -1.889,0.238 -1.907,0 m -0.222,-1.903 c -0.324,0.354 -0.483,0.878 -0.483,1.559 0,0.638 0.146,1.145 0.441,1.511 0.295,0.367 0.709,0.552 1.218,0.552 0.513,0 0.927,-0.177 1.22,-0.532 C 0.56,0.836 0.703,0.358 0.703,-0.235 v -0.261 -0.065 h -2.614 c 0.011,-0.383 0.105,-0.674 0.28,-0.88 0.183,-0.217 0.442,-0.327 0.795,-0.327 0.367,0 0.686,0.136 0.971,0.416 L 0.179,-1.308 0.224,-1.35 0.663,-1.733 0.613,-1.785 C 0.4,-2.001 0.193,-2.156 -0.012,-2.251 -0.249,-2.356 -0.529,-2.408 -0.85,-2.408 c -0.544,0 -0.976,0.167 -1.279,0.505"
                                   style="fill:#000000;fill-opacity:1;fill-rule:nonzero;stroke:none"
                                   id="path150"
                                   inkscape:connector-curvature="0" />
                                <g
                                   id="g152"
                                   transform="translate(5.0482,-2.3614)">
                                <path
                                   d="M 0,0 H -0.633 V 2.468 C -0.643,3.141 -0.913,3.43 -1.52,3.44 -1.806,3.44 -2.019,3.356 -2.178,3.191 -2.332,3.028 -2.414,2.791 -2.414,2.468 V 0 h -0.067 -0.633 v 4.034 h 0.066 0.634 V 3.967 3.702 c 0.273,0.252 0.616,0.379 1.02,0.379 0.426,0 0.777,-0.128 1.038,-0.384 C -0.073,3.42 0.068,3.034 0.066,2.562 V 0.067 0"
                                   style="fill:#000000;fill-opacity:1;fill-rule:nonzero;stroke:none"
                                   id="path154"
                                   inkscape:connector-curvature="0" />
                                <g
                                   id="g156"
                                   transform="translate(-11.2733,24.9263)">
                                <path
                                   d="m 0,0 c 0.454,-0.43 0.816,-0.388 1.106,-0.41 1.016,0.019 2.229,0.474 2.28,0.48 0.473,0.161 0.726,0.676 0.565,1.149 -0.162,0.474 -0.675,0.728 -1.148,0.566 0,0 -0.287,-0.098 -0.662,-0.197 C 1.777,1.488 1.31,1.399 1.111,1.403 0.778,1.593 0.347,1.556 0.05,1.281 -0.317,0.941 -0.339,0.368 0,0 M 11.339,6.822 V -16.989 H -1.39 c 0.127,0.596 0.184,1.18 0.184,1.748 0,0.264 -0.012,0.525 -0.033,0.78 -0.038,0.414 -0.101,0.814 -0.175,1.209 2.331,0.501 4.787,1.532 7.157,3.387 0.246,0.198 0.365,0.498 0.365,0.802 0,0.204 -0.052,0.412 -0.166,0.599 -0.182,0.3 -0.483,0.478 -0.798,0.478 -0.175,0.002 -0.352,-0.056 -0.502,-0.172 -2.209,-1.689 -4.452,-2.585 -6.561,-2.998 -0.342,1.205 -0.703,2.34 -0.837,3.441 h -0.003 v 0.011 0.007 l -10e-4,0.018 c 0,0.008 -0.002,0.017 -0.002,0.033 0.002,0.124 0.026,0.192 0.455,0.572 0.395,0.35 1.149,0.805 1.585,1.731 0.11,0.267 0.141,0.504 0.141,0.719 0,0.078 -0.004,0.154 -0.008,0.228 -0.15,1.284 -0.971,2.862 -1.82,4.519 -0.838,1.594 -1.74,3.178 -2.042,3.861 -0.082,0.192 -0.114,0.338 -0.128,0.481 -0.009,0.055 -0.012,0.091 -0.012,0.132 -0.02,0.462 0.485,1.155 0.779,2.225"
                                   style="fill:#94c11c;fill-opacity:1;fill-rule:nonzero;stroke:none"
                                   id="path158"
                                   inkscape:connector-curvature="0" />
                                </g>
                                </g>
                                </g>
                                </g>
                                </g>
                                </g>
                                </g>
                                </g>
                                </g>
                                </g>
                              </g>
                            </g>
                          </g>
                        </g>
                      </g>
                    </g>
                  </g>
                </g>
              </g>
            </g>
          </g>
        </g>
      </g>
    </g>
  </g>
</svg>
