<?xml version="1.0" encoding="UTF-8" standalone="no"?>
<svg
   data-name="Layer 1"
   width="600"
   height="536.85999"
   viewBox="0 0 600.00002 536.86"
   version="1.1"
   id="svg77"
   sodipodi:docname="data_catalog.svg"
   xml:space="preserve"
   inkscape:version="1.3.2 (091e20e, 2023-11-25)"
   xmlns:inkscape="http://www.inkscape.org/namespaces/inkscape"
   xmlns:sodipodi="http://sodipodi.sourceforge.net/DTD/sodipodi-0.dtd"
   xmlns="http://www.w3.org/2000/svg"
   xmlns:svg="http://www.w3.org/2000/svg"><defs
     id="defs77"><inkscape:path-effect
       effect="envelope"
       id="path-effect1640"
       is_visible="true"
       lpeversion="1"
       yy="true"
       xx="true"
       bendpath1="M 0.49743672,-1.6581224 C 28.041363,-14.180799 43.556473,16.966581 74.105494,1.6581224"
       bendpath2="M 73.442245,0 V 32.377486"
       bendpath3="M -0.33162448,31.548425 C 25.053283,18.227146 50.882913,49.109478 73.442245,34.698857"
       bendpath4="M 0,0 V 32.377486"
       bendpath1-nodetypes="cc"
       bendpath3-nodetypes="cc" /><linearGradient
       id="c3b6ae59-f5c8-462f-a7a0-99e79fdd0e5d-486"
       x1="326.5"
       y1="672.40002"
       x2="326.5"
       y2="143.42999"
       gradientUnits="userSpaceOnUse"><stop
         offset="0"
         stop-color="gray"
         stop-opacity="0.25"
         id="stop57726" /><stop
         offset="0.54"
         stop-color="gray"
         stop-opacity="0.12"
         id="stop57728" /><stop
         offset="1"
         stop-color="gray"
         stop-opacity="0.1"
         id="stop57730" /></linearGradient><inkscape:path-effect
       effect="envelope"
       id="path-effect11657"
       is_visible="true"
       lpeversion="1"
       yy="true"
       xx="true"
       bendpath1="M 0.49743672,-1.6581224 C 28.041363,-14.180799 43.556473,16.966581 74.105494,1.6581224"
       bendpath2="M 73.442245,0 V 32.377486"
       bendpath3="M -0.33162448,31.548425 C 25.053283,18.227146 50.882913,49.109478 73.442245,34.698857"
       bendpath4="M 0,0 V 32.377486"
       bendpath1-nodetypes="cc"
       bendpath3-nodetypes="cc" /></defs><sodipodi:namedview
     id="namedview77"
     pagecolor="#ffffff"
     bordercolor="#000000"
     borderopacity="0.25"
     inkscape:showpageshadow="2"
     inkscape:pageopacity="0.0"
     inkscape:pagecheckerboard="false"
     inkscape:deskcolor="#d1d1d1"
     inkscape:zoom="0.51804007"
     inkscape:cx="360.01076"
     inkscape:cy="301.135"
     inkscape:window-width="2560"
     inkscape:window-height="1387"
     inkscape:window-x="0"
     inkscape:window-y="25"
     inkscape:window-maximized="1"
     inkscape:current-layer="svg77" /><g
     id="g79"
     transform="matrix(0.74397191,0,0,0.74397191,31.310974,52.612166)"><path
       d="M 725.23724,563.97876 H 3.2540043 A 24.208494,24.208494 0 0 1 -20.954506,539.77031 v 0 q 392.578076,-45.62517 770.400286,0 v 0 a 24.208505,24.208505 0 0 1 -24.20854,24.20845 z"
       fill="#cccccc"
       id="path3412"
       style="fill:#808080;fill-opacity:1;stroke-width:0.972194" /><path
       d="m 749.44578,541.19429 -770.400286,-1.42404 89.28672,-150.23525 0.42713,-0.71202 V 57.721613 A 30.599851,30.599851 0 0 1 99.361794,27.119204 H 624.85726 A 30.599851,30.599851 0 0 1 655.4597,57.721613 V 391.10137 Z"
       fill="#e6e6e6"
       id="path3414"
       style="fill:#333333;fill-opacity:1;stroke-width:0.972194" /><path
       d="m 98.664044,48.479665 a 9.9794116,9.9794116 0 0 0 -9.96821,9.968208 V 360.34238 a 9.9798585,9.9798585 0 0 0 9.96821,9.96821 H 629.82719 a 9.9802962,9.9802962 0 0 0 9.96822,-9.96821 V 58.447873 a 9.9798489,9.9798489 0 0 0 -9.96822,-9.968208 z"
       fill="#ffffff"
       id="path3416"
       style="stroke-width:0.972194" /><g
       id="g78"
       transform="matrix(0.85757631,0,0,0.85757631,-6.771852,437.78565)"><rect
         x="151.10649"
         y="-450.82312"
         width="562.039"
         height="359.9548"
         fill="#e6e6e6"
         id="rect1-3"
         style="stroke-width:0.798832" /><rect
         x="167.17781"
         y="-405.67581"
         width="529.8963"
         height="137.21779"
         fill="#ffffff"
         id="rect2-9"
         style="stroke-width:0.798832" /><rect
         x="298.98453"
         y="-385.8555"
         width="112.0612"
         height="6.4327335"
         fill="#e6e6e6"
         id="rect3-9"
         style="stroke-width:0.798832" /><rect
         x="298.98453"
         y="-362.39062"
         width="173.04689"
         height="6.4327335"
         fill="#141762"
         id="rect4-7"
         style="stroke-width:0.798832" /><rect
         x="298.98453"
         y="-340.28329"
         width="141.02939"
         height="6.4327335"
         fill="#e6e6e6"
         id="rect5"
         style="stroke-width:0.798832" /><rect
         x="298.98453"
         y="-318.25955"
         width="82.330681"
         height="6.4327335"
         fill="#e6e6e6"
         id="rect6"
         style="stroke-width:0.798832" /><rect
         x="298.98453"
         y="-296.23578"
         width="124.25834"
         height="6.4327335"
         fill="#e6e6e6"
         id="rect7"
         style="stroke-width:0.798832" /><rect
         x="247.90904"
         y="-388.14246"
         width="13.721776"
         height="13.721776"
         fill="#e6e6e6"
         id="rect8"
         style="stroke-width:0.798832" /><rect
         x="247.90904"
         y="-366.03513"
         width="13.721776"
         height="13.721776"
         fill="#141762"
         id="rect9"
         style="stroke-width:0.798832" /><rect
         x="247.90904"
         y="-343.92783"
         width="13.721776"
         height="13.721776"
         fill="#e6e6e6"
         id="rect10"
         style="stroke-width:0.798832" /><rect
         x="247.90904"
         y="-321.82053"
         width="13.721776"
         height="13.721776"
         fill="#e6e6e6"
         id="rect11"
         style="stroke-width:0.798832" /><rect
         x="247.90904"
         y="-299.71323"
         width="13.721776"
         height="13.721776"
         fill="#e6e6e6"
         id="rect12"
         style="stroke-width:0.798832" /><rect
         x="577.23175"
         y="-356.88727"
         width="45.73925"
         height="45.739262"
         fill="#e6e6e6"
         id="rect13"
         style="stroke-width:0.798832" /><rect
         x="167.17781"
         y="-249.40004"
         width="529.8963"
         height="137.21779"
         fill="#ffffff"
         id="rect14"
         style="stroke-width:0.798832" /><rect
         x="271.54099"
         y="-237.2048"
         width="13.721776"
         height="13.721768"
         fill="#e6e6e6"
         id="rect15"
         style="stroke-width:0.798832" /><rect
         x="247.90904"
         y="-237.2048"
         width="13.721776"
         height="13.721768"
         fill="#141762"
         id="rect16"
         style="stroke-width:0.798832" /><path
         d="m 480.56367,-207.198 a 51.960503,51.960503 0 0 0 -83.8798,-7.74861 l -3.34404,-2.92208 a 56.392521,56.392521 0 0 1 91.04533,8.40869 z"
         fill="#e6e6e6"
         id="path16-0"
         style="stroke-width:0.798832" /><path
         d="m 482.65637,-149.34781 -3.68534,-2.47798 a 51.986138,51.986138 0 0 0 1.59264,-55.37222 l 3.82151,-2.26202 a 56.427462,56.427462 0 0 1 -1.72881,60.11224 z"
         fill="#141762"
         id="path17-3"
         style="stroke-width:0.798832" /><path
         d="m 393.80257,-143.16105 a 56.389198,56.389198 0 0 1 -0.46273,-74.70766 l 3.34404,2.92207 a 51.948768,51.948768 0 0 0 0.4263,68.82273 z"
         fill="#141762"
         id="path18-9"
         style="stroke-width:0.798832" /><path
         d="m 435.8212,-124.37748 a 56.484395,56.484395 0 0 1 -42.01858,-18.7836 l 3.30761,-2.96287 a 51.95877,51.95877 0 0 0 81.86085,-5.70189 l 3.68534,2.47797 a 56.36072,56.36072 0 0 1 -46.83522,24.97039 z"
         fill="#141762"
         id="path19-8"
         style="stroke-width:0.798832" /><rect
         x="577.23175"
         y="-207.47237"
         width="45.73925"
         height="45.73925"
         fill="#e6e6e6"
         id="rect19"
         style="stroke-width:0.798832" /><rect
         x="246.00328"
         y="-177.74187"
         width="45.739262"
         height="45.73925"
         fill="#e6e6e6"
         id="rect20"
         style="stroke-width:0.798832" /><rect
         width="562.039"
         height="23.877478"
         fill="#141762"
         id="rect21"
         x="150.8665"
         y="-451.14175"
         style="stroke-width:0.798832" /><circle
         cx="168.61031"
         cy="-438.93436"
         r="4.4255075"
         fill="#ffffff"
         id="circle21"
         style="stroke-width:0.798832" /><circle
         cx="185.4084"
         cy="-438.93436"
         r="4.4255075"
         fill="#ffffff"
         id="circle22"
         style="stroke-width:0.798832" /><circle
         cx="202.2065"
         cy="-438.93436"
         r="4.4255075"
         fill="#ffffff"
         id="circle23"
         style="stroke-width:0.798832" /></g><path
       d="m 102.15491,410.18344 a 4.2839029,4.2839029 0 0 0 -3.881306,2.48649 l -27.51202,59.80929 a 4.2718963,4.2718963 0 0 0 3.88062,6.05776 H 653.20507 a 4.2716047,4.2716047 0 0 0 3.82018,-6.18286 l -29.90468,-59.8093 a 4.2504303,4.2504303 0 0 0 -3.82013,-2.36133 z"
       fill="#cccccc"
       id="path3418"
       style="fill:#1774cc;fill-opacity:1;stroke-width:0.972194" /><path
       d="m 305.24141,489.92918 a 4.2786239,4.2786239 0 0 0 -4.12461,3.16095 l -6.90112,25.63255 a 4.2716825,4.2716825 0 0 0 4.12466,5.38323 h 131.24367 a 4.2711283,4.2711283 0 0 0 4.03566,-5.66971 l -8.87235,-25.63256 a 4.2743268,4.2743268 0 0 0 -4.03711,-2.87446 z"
       fill="#cccccc"
       id="path3422"
       style="fill:#1774cc;fill-opacity:1;stroke-width:0.972194" /><path
       id="polygon3424"
       style="fill:#808080;stroke-width:0.972194"
       d="m 68.773644,388.82284 v -4.98443 H 655.46037 v 5.69705 H 68.332264 Z" /><path
       d="m 589.10598,395.99256 a 1.0419095,1.0419095 0 0 0 -1.00442,0.76976 l -1.68053,6.24193 a 1.0402471,1.0402471 0 0 0 1.00446,1.31087 h 31.9598 a 1.0400818,1.0400818 0 0 0 0.98275,-1.38064 l -2.16057,-6.24194 a 1.0408693,1.0408693 0 0 0 -0.98306,-0.69998 z"
       fill="#cccccc"
       id="path3428"
       style="fill:#1774cc;fill-opacity:1;stroke-width:0.972194" /></g></svg>
