<?xml version="1.0" encoding="UTF-8" standalone="no"?>
<!-- Created with Inkscape (http://www.inkscape.org/) -->

<svg
   width="149.07607mm"
   height="43.315372mm"
   viewBox="0 0 149.07607 43.315372"
   version="1.1"
   id="svg2514"
   inkscape:version="1.3.2 (091e20e, 2023-11-25)"
   sodipodi:docname="fzj_logo.svg"
   xmlns:inkscape="http://www.inkscape.org/namespaces/inkscape"
   xmlns:sodipodi="http://sodipodi.sourceforge.net/DTD/sodipodi-0.dtd"
   xmlns="http://www.w3.org/2000/svg"
   xmlns:svg="http://www.w3.org/2000/svg"
   xmlns:rdf="http://www.w3.org/1999/02/22-rdf-syntax-ns#"
   xmlns:cc="http://creativecommons.org/ns#"
   xmlns:dc="http://purl.org/dc/elements/1.1/">
  <defs
     id="defs2508" />
  <sodipodi:namedview
     id="base"
     pagecolor="#ffffff"
     bordercolor="#666666"
     borderopacity="1.0"
     inkscape:pageopacity="0.0"
     inkscape:pageshadow="2"
     inkscape:zoom="0.78522666"
     inkscape:cx="353.40115"
     inkscape:cy="12.735176"
     inkscape:document-units="mm"
     inkscape:current-layer="layer1"
     showgrid="false"
     fit-margin-top="0"
     fit-margin-left="0"
     fit-margin-right="0"
     fit-margin-bottom="0"
     inkscape:window-width="1920"
     inkscape:window-height="1027"
     inkscape:window-x="0"
     inkscape:window-y="25"
     inkscape:window-maximized="1"
     inkscape:pagecheckerboard="0"
     inkscape:showpageshadow="2"
     inkscape:deskcolor="#d1d1d1" />
  <metadata
     id="metadata2511">
    <rdf:RDF>
      <cc:Work
         rdf:about="">
        <dc:format>image/svg+xml</dc:format>
        <dc:type
           rdf:resource="http://purl.org/dc/dcmitype/StillImage" />
      </cc:Work>
    </rdf:RDF>
  </metadata>
  <g
     inkscape:label="Layer 1"
     inkscape:groupmode="layer"
     id="layer1"
     transform="translate(596.90113,2.848162)">
    <path
       inkscape:connector-curvature="0"
       id="path71"
       style="fill:#023d6b;stroke-width:0.390587;stroke-linecap:butt;stroke-linejoin:round;stroke-miterlimit:100000"
       d="m -508.5937,30.846415 h -0.53951 a 0.19388751,0.19388751 0 0 0 -0.19389,0.202314 v 2.368806 c 0,0.699682 -0.35406,1.079025 -0.89358,1.079025 -0.5395,0 -0.84298,-0.379343 -0.84298,-1.079025 v -2.368806 a 0.21074729,0.21074729 0 0 0 -0.21074,-0.202314 h -0.53109 a 0.2023174,0.2023174 0 0 0 -0.20232,0.202314 v 2.259212 c 0,1.222342 0.49737,1.981022 1.52582,1.981022 a 1.2729136,1.2729136 0 0 0 1.16332,-0.556373 v 0.269758 a 0.19388751,0.19388751 0 0 0 0.19389,0.202314 h 0.5395 a 0.2023174,0.2023174 0 0 0 0.20232,-0.202314 v -3.953619 a 0.2023174,0.2023174 0 0 0 -0.21074,-0.202314 z m -6.74392,-0.09273 a 1.3319229,1.3319229 0 0 0 -1.20547,0.590086 v -2.031594 a 0.21074729,0.21074729 0 0 0 -0.21075,-0.210759 h -0.53109 a 0.2023174,0.2023174 0 0 0 -0.20232,0.210759 v 5.690169 a 0.19388751,0.19388751 0 0 0 0.20232,0.202314 h 0.56481 a 0.2023174,0.2023174 0 0 0 0.21075,-0.202314 v -2.360368 c 0,-0.699682 0.37934,-1.087456 0.92728,-1.087456 0.54795,0 0.91886,0.387774 0.91886,1.087456 v 2.360368 a 0.2023174,0.2023174 0 0 0 0.20232,0.202314 h 0.53109 a 0.2023174,0.2023174 0 0 0 0.21075,-0.202314 v -2.259211 c -0.009,-1.188613 -0.52266,-1.98945 -1.59326,-1.98945 z m 1.44152,-24.311818 h -2.09905 a 0.78397994,0.78397994 0 0 0 -0.78398,0.7839827 V 17.24057 c 0,2.604832 -1.26448,3.717581 -3.06006,3.717581 -1.79556,0 -3.00946,-1.112749 -3.00946,-3.717581 V 7.2258518 a 0.78397994,0.78397994 0 0 0 -0.78399,-0.7839828 h -2.09904 a 0.78397994,0.78397994 0 0 0 -0.78398,0.7839828 V 17.240573 c 0,4.425692 2.68071,7.156966 6.67647,7.156966 3.99577,0 6.74392,-2.731274 6.74392,-7.156966 V 7.2258518 a 0.78397994,0.78397994 0 0 0 -0.77554,-0.7839828 z m -14.7186,24.446696 h -0.10959 a 1.3234929,1.3234929 0 0 0 -1.16333,0.649103 v -0.446788 a 0.19388751,0.19388751 0 0 0 -0.19389,-0.202315 h -0.48893 a 0.2023174,0.2023174 0 0 0 -0.20231,0.202315 v 3.953628 a 0.19388751,0.19388751 0 0 0 0.20231,0.202304 h 0.52265 a 0.21074729,0.21074729 0 0 0 0.21075,-0.202304 v -2.014747 c 0,-0.842997 0.37092,-1.256057 1.10432,-1.256057 h 0.11802 a 0.2023174,0.2023174 0 0 0 0.21074,-0.193895 v -0.53108 a 0.21074729,0.21074729 0 0 0 -0.18546,-0.202314 z m 7.93252,0.708109 a 0.90199839,0.90199839 0 0 1 0.91044,0.775547 0.14330815,0.14330815 0 0 0 0.1433,0.126452 h 0.60695 a 0.12644837,0.12644837 0 0 0 0.12646,-0.14331 0.26975653,0.26975653 0 0 0 0,-0.109637 1.7787071,1.7787071 0 0 0 -1.77028,-1.449933 1.8461463,1.8461463 0 0 0 -1.85458,1.989441 v 0.564803 a 1.8377164,1.8377164 0 0 0 1.85458,1.981031 1.7449876,1.7449876 0 0 0 1.77028,-1.399363 1.0790262,1.0790262 0 0 0 0,-0.143307 0.13487828,0.13487828 0 0 0 -0.14331,-0.134879 h -0.60696 a 0.12644837,0.12644837 0 0 0 -0.13487,0.118084 0.84298918,0.84298918 0 0 1 -0.90201,0.767117 c -0.5395,0 -0.93571,-0.379343 -0.93571,-1.079025 v -0.775555 c 0.0253,-0.741834 0.42149,-1.129598 0.96101,-1.129598 z m -5.58902,0.438352 c 0,-0.362488 0.32877,-0.480502 0.70812,-0.480502 a 0.74183049,0.74183049 0 0 1 0.84299,0.53951 c 0,0.09273 0.059,0.13488 0.16017,0.13488 h 0.54794 a 0.14330815,0.14330815 0 0 0 0.14331,-0.151737 0.37091526,0.37091526 0 0 0 0,-0.109638 1.5258104,1.5258104 0 0 0 -1.62697,-1.171746 c -0.84299,0 -1.68597,0.379333 -1.68597,1.281332 0,1.77028 2.47838,1.036877 2.47838,1.94731 0,0.404629 -0.30348,0.556373 -0.84298,0.556373 a 0.84298918,0.84298918 0 0 1 -0.89359,-0.581667 c 0,-0.08428 -0.059,-0.143309 -0.15173,-0.143309 h -0.53952 a 0.16016794,0.16016794 0 0 0 -0.16017,0.143309 0.26132664,0.26132664 0 0 0 0,0.118085 1.5932496,1.5932496 0 0 0 1.68599,1.213906 c 0.902,0 1.68597,-0.337195 1.68597,-1.323493 0.14332,-1.787145 -2.32664,-1.06217 -2.32664,-2.014754 z m 3.92834,-27.0936697 a 1.8208565,1.8208565 0 1 0 -1.82086,-1.8208592 1.6859783,1.6859783 0 0 0 1.84614,1.778709 z m 5.31084,0 a 1.8208565,1.8208565 0 1 0 -1.82087,-1.8208592 1.6859783,1.6859783 0 0 0 1.84615,1.778709 z m -13.38668,2.3266459 a 0.78397994,0.78397994 0 0 0 -0.78398,-0.783983 h -2.09905 a 0.78397994,0.78397994 0 0 0 -0.78398,0.783983 V 18.656785 a 2.1411925,2.1411925 0 1 1 -4.27395,0 v -0.227609 a 0.78397994,0.78397994 0 0 0 -0.78398,-0.783966 h -2.02317 a 0.78397994,0.78397994 0 0 0 -0.78398,0.783966 v 0.17703 a 5.7660472,5.7660472 0 1 0 11.53209,0 z m -43.94503,8.7165138 6.22127,-16.16010566 a 19.135855,19.135855 0 0 0 -19.05999,10.28447066 0.42149457,0.42149457 0 0 1 0,0.10963 l -0.26976,0.699682 c -1.8883,4.880918 0.99474,8.497342 3.79345,9.576369 a 7.2075574,7.2075574 0 0 0 9.31503,-4.509993 z m 40.26116,14.769171 a 1.8545761,1.8545761 0 0 0 -1.87143,1.98945 v 0.564804 a 1.8798672,1.8798672 0 1 0 3.75973,0 v -0.564804 a 1.8545761,1.8545761 0 0 0 -1.8883,-1.98945 z m 0.94415,2.663848 c 0,0.699682 -0.38777,1.079025 -0.94415,1.079025 -0.55637,0 -0.92729,-0.379343 -0.92729,-1.079025 v -0.775555 c 0,-0.699682 0.39621,-1.087456 0.92729,-1.087456 0.53108,0 0.94415,0.387774 0.94415,1.087456 z m -29.92611,-13.243364 c -3.70915,9.694375 -12.64484,13.327664 -20.83026,11.928301 a 19.110565,19.110565 0 1 0 26.78176,-27.2538448 z m 26.13267,8.927249 h -3.37196 a 0.2023174,0.2023174 0 0 0 -0.19389,0.210759 v 5.690169 a 0.19388751,0.19388751 0 0 0 0.19389,0.202314 h 0.53108 a 0.2023174,0.2023174 0 0 0 0.21075,-0.202314 V 32.76843 h 2.10747 a 0.2023174,0.2023174 0 0 0 0.20231,-0.202316 V 32.10247 a 0.21074729,0.21074729 0 0 0 -0.20231,-0.210753 h -2.10747 v -1.913589 h 2.63013 a 0.21074729,0.21074729 0 0 0 0.21074,-0.202313 v -0.463638 a 0.21074729,0.21074729 0 0 0 -0.21074,-0.210759 z m 72.03344,1.744995 h -0.53108 a 0.2023174,0.2023174 0 0 0 -0.20231,0.202314 v 2.368806 c 0,0.699682 -0.35406,1.079025 -0.89357,1.079025 -0.53951,0 -0.84299,-0.379343 -0.84299,-1.079025 v -2.368806 a 0.21074729,0.21074729 0 0 0 -0.21075,-0.202314 h -0.53108 a 0.2023174,0.2023174 0 0 0 -0.20232,0.202314 v 2.259212 c 0,1.222342 0.49737,1.981022 1.52581,1.981022 a 1.2729136,1.2729136 0 0 0 1.16333,-0.556373 v 0.269758 a 0.19388751,0.19388751 0 0 0 0.20231,0.202314 h 0.53109 a 0.2023174,0.2023174 0 0 0 0.20231,-0.202314 v -3.953619 a 0.2023174,0.2023174 0 0 0 -0.23603,-0.202314 z m -8.92725,-13.024189 h -2.60483 c -0.5058,0 -0.60696,0.404638 -0.65754,0.783983 a 2.6385562,2.6385562 0 0 1 -2.88302,2.351948 c -1.84614,0 -3.37196,-1.365651 -3.37196,-3.970475 v -3.371968 c 0,-2.604833 1.49209,-4.0210543 3.37196,-4.0210543 a 2.7565747,2.7565747 0 0 1 2.89146,2.4615343 c 0.0759,0.505796 0.35404,0.682808 0.63224,0.682808 h 2.57954 a 0.53108322,0.53108322 0 0 0 0.55637,-0.63223 6.3645682,6.3645682 0 0 0 -6.65961,-5.9515068 c -4.04635,0 -7.00525,2.9841778 -7.00525,7.4098698 v 3.371951 c 0,4.425701 2.9589,7.409878 7.00525,7.409878 a 6.4994465,6.4994465 0 0 0 6.74392,-5.968364 0.57323262,0.57323262 0 0 0 -0.59853,-0.556374 z m 3.87775,13.024192 h -0.11801 a 1.2982033,1.2982033 0 0 0 -1.1549,0.649102 V 31.04873 a 0.2023174,0.2023174 0 0 0 -0.20232,-0.202314 h -0.48895 a 0.2023174,0.2023174 0 0 0 -0.20231,0.202314 v 3.953619 a 0.19388751,0.19388751 0 0 0 0.20231,0.202314 h 0.52266 a 0.21074729,0.21074729 0 0 0 0.21075,-0.202314 v -1.972587 c 0,-0.842997 0.37092,-1.256057 1.10431,-1.256057 h 0.12646 a 0.19388751,0.19388751 0 0 0 0.20232,-0.193895 v -0.53108 a 0.2023174,0.2023174 0 0 0 -0.20232,-0.202314 z m -3.95361,0 h -0.88514 v -0.927292 a 0.2023174,0.2023174 0 0 0 -0.20233,-0.210753 h -0.51422 a 0.2023174,0.2023174 0 0 0 -0.19389,0.210753 v 0.379343 c 0,0.446789 -0.17702,0.547948 -0.60695,0.547948 a 0.2023174,0.2023174 0 0 0 -0.20231,0.202314 v 0.396211 a 0.2023174,0.2023174 0 0 0 0.20231,0.202315 h 0.59852 v 2.158053 c 0,0.902005 0.30348,1.399354 1.34879,1.399354 h 0.45522 a 0.2023174,0.2023174 0 0 0 0.20231,-0.202314 v -0.446789 a 0.19388751,0.19388751 0 0 0 -0.20231,-0.193886 h -0.30349 c -0.52264,0 -0.58165,-0.18545 -0.58165,-0.682827 v -2.006308 h 0.88514 a 0.2023174,0.2023174 0 0 0 0.19389,-0.227598 v -0.421495 a 0.2023174,0.2023174 0 0 0 -0.19389,-0.177029 z m 15.69645,-0.09273 a 1.5258104,1.5258104 0 0 0 -1.35721,0.708108 1.3825023,1.3825023 0 0 0 -1.28135,-0.708108 1.2391941,1.2391941 0 0 0 -1.12961,0.590086 v -0.295044 a 0.21074729,0.21074729 0 0 0 -0.21074,-0.202314 h -0.5648 a 0.2023174,0.2023174 0 0 0 -0.20232,0.202314 v 3.953619 a 0.19388751,0.19388751 0 0 0 0.20232,0.202314 h 0.53108 a 0.21074729,0.21074729 0 0 0 0.21075,-0.202314 v -2.225488 c 0,-0.699683 0.13487,-1.222336 0.84298,-1.222336 0.70813,0 0.84299,0.429924 0.84299,1.222336 v 2.225488 a 0.2023174,0.2023174 0 0 0 0.20233,0.202314 h 0.5395 a 0.2023174,0.2023174 0 0 0 0.20232,-0.202314 v -2.225488 c 0,-0.750262 0.17704,-1.222336 0.88514,-1.222336 0.70811,0 0.84299,0.472074 0.84299,1.222336 v 2.225488 a 0.19388751,0.19388751 0 0 0 0.20231,0.202314 h 0.59853 a 0.21074729,0.21074729 0 0 0 0.21075,-0.202314 v -2.13276 c -0.0337,-1.256056 -0.28663,-2.115901 -1.56796,-2.115901 z m -21.07473,0 a 1.3234929,1.3234929 0 0 0 -1.19705,0.598523 v -0.303481 a 0.2023174,0.2023174 0 0 0 -0.20232,-0.202314 h -0.53951 a 0.19388751,0.19388751 0 0 0 -0.19388,0.202314 v 3.953619 a 0.19388751,0.19388751 0 0 0 0.19388,0.202314 h 0.53951 a 0.2023174,0.2023174 0 0 0 0.20232,-0.202314 v -2.360368 c 0,-0.699682 0.38777,-1.087456 0.92729,-1.087456 0.53952,0 0.92729,0.387774 0.92729,1.087456 v 2.360368 a 0.19388751,0.19388751 0 0 0 0.20231,0.202314 h 0.49737 a 0.2023174,0.2023174 0 0 0 0.20232,-0.202314 v -2.259211 c 0.0168,-1.188613 -0.5058,-1.98945 -1.57638,-1.98945 z m 21.91772,-24.311818 h -2.09905 a 0.78397994,0.78397994 0 0 0 -0.78398,0.7839827 v 6.3224243 h -6.04423 V 7.2258518 a 0.78397994,0.78397994 0 0 0 -0.78398,-0.7839828 h -2.09904 a 0.78397994,0.78397994 0 0 0 -0.78398,0.7839828 V 23.360664 a 0.78397994,0.78397994 0 0 0 0.78398,0.783984 h 2.09904 a 0.78397994,0.78397994 0 0 0 0.78398,-0.783984 v -6.372985 h 5.99365 v 6.372985 a 0.78397994,0.78397994 0 0 0 0.78398,0.783984 h 2.09905 a 0.78397994,0.78397994 0 0 0 0.78398,-0.783984 V 7.2258518 a 0.78397994,0.78397994 0 0 0 -0.78398,-0.7839828 z m -47.05567,24.311816 a 1.3234929,1.3234929 0 0 0 -1.19705,0.598523 v -0.303481 a 0.2023174,0.2023174 0 0 0 -0.20232,-0.202314 h -0.53108 a 0.2023174,0.2023174 0 0 0 -0.20231,0.202314 v 3.953619 a 0.19388751,0.19388751 0 0 0 0.20231,0.202314 h 0.53108 a 0.2023174,0.2023174 0 0 0 0.20232,-0.202314 v -2.360368 c 0,-0.699682 0.38778,-1.087456 0.92729,-1.087456 0.53951,0 0.9273,0.387774 0.9273,1.087456 v 2.360368 a 0.19388751,0.19388751 0 0 0 0.2023,0.202314 h 0.5311 a 0.21074729,0.21074729 0 0 0 0.21074,-0.202314 v -2.259211 c 0,-1.188613 -0.52265,-1.98945 -1.60168,-1.98945 z m 5.6143,3.607986 h -1.12959 c -0.29506,0 -0.4215,-0.09272 -0.4215,-0.311908 a 0.30347609,0.30347609 0 0 1 0.34563,-0.311894 h 0.84298 a 1.4583713,1.4583713 0 0 0 1.68599,-1.483664 v -1.787137 a 0.2023174,0.2023174 0 0 0 -0.20232,-0.202323 h -0.47207 a 0.2023174,0.2023174 0 0 0 -0.20233,0.202323 v 0.564803 a 1.5763898,1.5763898 0 0 0 -0.89356,-0.278186 h -0.21919 a 1.4920908,1.4920908 0 0 0 -1.68597,1.50052 1.1801849,1.1801849 0 0 0 0.55637,1.062171 0.69968102,0.69968102 0 0 0 -0.59009,0.716537 0.69125113,0.69125113 0 0 0 0.39621,0.665952 1.0621663,1.0621663 0 0 0 -0.5901,1.003162 1.3572126,1.3572126 0 0 0 1.54267,1.33192 h 1.01159 a 1.3487828,1.3487828 0 1 0 0,-2.672276 z m -0.63224,-2.874592 h 0.23604 a 0.76712014,0.76712014 0 1 1 0,1.525815 h -0.23604 a 0.73340058,0.73340058 0 0 1 -0.84298,-0.758689 0.74183049,0.74183049 0 0 1 0.84298,-0.767126 z m 0.45523,4.821902 h -0.69126 c -0.5901,0 -0.80084,-0.236036 -0.80084,-0.606954 0,-0.370915 0.21074,-0.632247 0.80084,-0.632247 h 0.67438 c 0.59853,0 0.84301,0.244466 0.84301,0.632247 0,0.387773 -0.22762,0.606954 -0.84301,0.606954 z m 3.87774,-4.316107 c 0,-0.362479 0.32876,-0.4805 0.70811,-0.4805 a 0.75026039,0.75026039 0 0 1 0.84299,0.539517 c 0,0.09273 0.059,0.134871 0.15175,0.134871 h 0.55637 a 0.14330815,0.14330815 0 0 0 0.14331,-0.151738 0.37091526,0.37091526 0 0 0 0,-0.109637 1.5258104,1.5258104 0 0 0 -1.62698,-1.171747 c -0.84298,0 -1.68597,0.379334 -1.68597,1.281333 0,1.770279 2.47839,1.036876 2.47839,1.947309 0,0.404638 -0.30348,0.556376 -0.80085,0.556376 a 0.84298918,0.84298918 0 0 1 -0.89356,-0.581662 c 0,-0.08429 -0.059,-0.143316 -0.15175,-0.143316 h -0.54794 a 0.15173805,0.15173805 0 0 0 -0.15173,0.143316 0.26132664,0.26132664 0 0 0 0,0.117963 1.5848197,1.5848197 0 0 0 1.72813,1.213906 c 0.90199,0 1.68597,-0.337195 1.68597,-1.323493 0.0338,-1.744995 -2.43624,-1.020019 -2.43624,-1.972604 z m -2.6217,-8.632212 v -1.871426 a 0.78397994,0.78397994 0 0 0 -0.78397,-0.783983 h -6.74392 V 7.2174236 a 0.78397994,0.78397994 0 0 0 -0.78398,-0.7839828 h -2.09905 a 0.78397994,0.78397994 0 0 0 -0.78397,0.7839828 V 23.360664 a 0.78397994,0.78397994 0 0 0 0.78397,0.783984 h 9.61008 a 0.78397994,0.78397994 0 0 0 0.80084,-0.783984 z m 6.95467,0 V 7.2258518 a 0.78397994,0.78397994 0 0 0 -0.78398,-0.7839828 h -2.09905 a 0.78397994,0.78397994 0 0 0 -0.78398,0.7839828 V 23.360664 a 0.78397994,0.78397994 0 0 0 0.78398,0.783984 h 2.09905 a 0.78397994,0.78397994 0 0 0 0.78398,-0.783984 z m 2.52897,7.485751 h -2.8746 a 0.21074729,0.21074729 0 0 0 -0.21074,0.202314 v 0.396211 a 0.2023174,0.2023174 0 0 0 0.21074,0.202315 h 1.98103 l -2.0316,2.596395 a 0.47207395,0.47207395 0 0 0 -0.16017,0.387789 v 0.354044 a 0.2023174,0.2023174 0 0 0 0.21074,0.202323 h 2.8746 a 0.19388751,0.19388751 0 0 0 0.20232,-0.202323 v -0.396194 a 0.2023174,0.2023174 0 0 0 -0.20232,-0.21076 h -2.01474 l 2.09061,-2.587967 a 0.44678427,0.44678427 0 0 0 0.12645,-0.345622 v -0.421492 a 0.2023174,0.2023174 0 0 0 -0.1686,-0.17703 z m 3.37196,-0.09273 a 1.863006,1.863006 0 0 0 -1.88829,1.98945 v 0.564804 a 1.863006,1.863006 0 0 0 1.89672,1.981022 1.787137,1.787137 0 0 0 1.68598,-1.1549 0.53951306,0.53951306 0 0 0 0,-0.143298 0.14330815,0.14330815 0 0 0 -0.14331,-0.151735 h -0.5648 a 0.25289675,0.25289675 0 0 0 -0.20232,0.126449 0.84298918,0.84298918 0 0 1 -0.843,0.531081 0.96100767,0.96100767 0 0 1 -0.95257,-1.036875 v -0.117962 h 2.58797 a 0.21074729,0.21074729 0 0 0 0.31192,-0.210743 v -0.404637 a 1.8545761,1.8545761 0 0 0 -1.84616,-1.972595 z m 0.94415,1.922016 h -1.8883 v -0.101185 a 0.94415,0.94415 0 1 1 1.8883,0 z" />
  </g>
</svg>
